<svg width="1435" height="582" viewBox="0 0 1435 582" fill="none" xmlns="http://www.w3.org/2000/svg">
<path fill-rule="evenodd" clip-rule="evenodd" d="M908.066 361.583C906.238 361.583 904.443 361.091 902.871 360.157C887.195 350.836 517.987 130.785 429.371 42.5737C415.21 28.4852 404.133 14.2744 396.16 0H370.83C405.115 80.159 558.38 176.42 685.461 256.237L685.797 256.447C711.847 272.759 736.365 288.181 760.04 303.481C817.611 340.688 922.302 406.67 1023.61 470.49C1053.91 489.556 1063.73 496.071 1073.66 502.651C1082.09 508.24 1090.59 513.876 1111.76 527.289C1115.86 529.881 1119 533.735 1120.72 538.27C1122.44 542.804 1122.63 547.774 1121.28 552.431C1119.93 557.087 1117.1 561.178 1113.22 564.087C1109.34 566.996 1104.63 568.565 1099.78 568.558H1099.72C1095.49 568.562 1091.35 567.354 1087.78 565.078C1066.33 551.517 1057.9 545.931 1049.37 540.275L1049.37 540.274C1039.58 533.783 1029.65 527.198 999.717 508.356C898.366 444.474 793.568 378.416 735.782 341.086C712.322 325.94 687.896 310.594 662.03 294.344C509.189 198.359 351.887 99.5717 323.572 0L284.547 0C286.898 23.2809 297.966 48.2409 317.876 75.4878C338.639 103.849 364.873 127.335 398.08 157.061C405.481 163.683 413.174 170.567 421.142 177.818C463.788 216.619 593.456 310.594 757.634 429.558C821.948 476.166 894.466 528.752 967.265 582H1435V0H636.816C649.613 5.60285 663.657 11.1688 679.054 16.5885C806.599 61.4143 1111.93 181.182 1154.26 197.785C1157.22 198.949 1158.9 199.606 1159.13 199.694C1160.83 200.417 1162.23 201.695 1163.1 203.318C1163.98 204.942 1164.28 206.815 1163.95 208.63C1163.62 210.446 1162.69 212.096 1161.3 213.311C1159.91 214.525 1158.15 215.232 1156.31 215.316C1155.23 215.344 1154.16 215.151 1153.17 214.749C1153.04 214.699 1152.46 214.469 1151.44 214.069C1124.91 203.65 804.882 77.9652 673.66 31.8729C644.4 21.5881 619.801 10.7443 599.186 0H546.963C641.835 74.5239 839.382 157.118 988.258 219.362L988.408 219.425L990.079 220.124L990.118 220.14L990.157 220.157C1011.84 229.23 1032.68 237.952 1052.31 246.253C1055.76 247.723 1058.59 250.34 1060.34 253.66C1062.08 256.981 1062.62 260.802 1061.87 264.478C1061.13 268.153 1059.13 271.457 1056.23 273.832C1053.33 276.207 1049.7 277.507 1045.95 277.511H1045.93C1043.76 277.511 1041.61 277.073 1039.6 276.224C1019.51 267.715 998.123 258.762 975.842 249.457L975.678 249.388C799.76 175.819 581.918 84.7165 497.804 0H463.723C474.75 12.0378 488.886 23.8849 506.096 35.491C597.502 97.165 978.938 301.856 982.784 303.91C983.582 304.341 984.213 305.026 984.577 305.856C984.942 306.687 985.02 307.615 984.798 308.494C984.577 309.373 984.069 310.154 983.354 310.712C982.64 311.27 981.76 311.574 980.853 311.575C980.184 311.577 979.525 311.408 978.938 311.085C975.092 309.031 593.288 104.125 501.545 42.2363C481.246 28.5545 465.019 14.4491 452.915 0H420.046C426.354 9.35299 434.24 18.7419 443.698 28.1478C528.379 112.418 890.625 329.121 912.304 342.089C912.864 342.425 913.197 342.624 913.291 342.681C915.205 343.818 916.693 345.553 917.525 347.619C918.357 349.684 918.489 351.966 917.898 354.114C917.308 356.261 916.029 358.155 914.258 359.505C912.488 360.854 910.323 361.584 908.097 361.583H908.066ZM939.64 582C874.994 534.76 812.597 489.54 752.005 445.627L751.971 445.602L748.087 442.788L746.354 441.532C582.584 322.811 453.353 229.128 410.185 189.868C402.248 182.647 394.586 175.779 387.2 169.187C354.637 140.059 326.503 114.825 304.728 85.0999C282.565 54.7752 270.425 26.654 268.154 0H238.462C166.131 78.0413 193.729 212.678 298.032 343.738C328.999 382.669 415.169 477.093 513.464 582H648.254C548.015 490.283 447.425 396.903 359.418 311.284C290.584 244.321 246.131 179.443 230.853 123.779C230.004 120.687 229.772 117.459 230.171 114.278C230.569 111.097 231.59 108.026 233.176 105.24C234.761 102.454 236.879 100.008 239.41 98.0407C241.94 96.0739 244.833 94.6251 247.923 93.7771C251.013 92.9305 254.24 92.701 257.418 93.1018C260.597 93.5027 263.665 94.5259 266.449 96.1132C269.232 97.7005 271.675 99.8207 273.64 102.353C275.604 104.885 277.05 107.779 277.896 110.87C290.692 157.505 331.713 216.267 393.437 276.3C492.497 372.692 607.796 479.172 720.574 582H939.64ZM502.327 582C406.054 479.169 322.196 387.202 291.672 348.843C187.138 217.448 158.653 81.757 227.621 0H-6V582H502.327ZM1164.45 512.924C1162.4 512.94 1160.38 512.411 1158.61 511.391L979.857 406.302C977.309 404.705 975.484 402.177 974.769 399.256C974.053 396.334 974.505 393.249 976.026 390.655C977.548 388.061 980.021 386.162 982.919 385.363C985.818 384.563 988.913 384.925 991.549 386.372L1170.24 491.4C1172.39 492.699 1174.07 494.666 1175 497.003C1175.94 499.339 1176.09 501.918 1175.43 504.347C1174.76 506.776 1173.33 508.922 1171.33 510.459C1169.34 511.996 1166.9 512.84 1164.38 512.863L1164.45 512.924ZM737.744 528.439C734.957 528.453 732.251 527.506 730.082 525.756C615.369 433.67 482.667 323.859 471.936 314.979C471.532 314.645 471.301 314.453 471.25 314.412C469.109 312.248 467.849 309.366 467.714 306.325C467.58 303.283 468.58 300.301 470.522 297.957C472.464 295.613 475.207 294.075 478.219 293.642C481.232 293.21 484.297 293.914 486.819 295.617C488.198 296.766 626.463 411.299 745.344 506.716C747.282 508.315 748.682 510.472 749.354 512.894C750.026 515.316 749.938 517.886 749.102 520.256C748.266 522.626 746.723 524.682 744.68 526.146C742.637 527.609 740.195 528.41 737.682 528.439H737.744Z" fill="url(#paint0_linear_257_1206)"/>
<defs>
<linearGradient id="paint0_linear_257_1206" x1="714.5" y1="0" x2="714.5" y2="582" gradientUnits="userSpaceOnUse">
<stop offset="0.145898" stop-color="#191C26"/>
<stop offset="1" stop-color="#191C26" stop-opacity="0"/>
</linearGradient>
</defs>
</svg>
