<svg width="319" height="232" viewBox="0 0 319 232" fill="none" xmlns="http://www.w3.org/2000/svg">
<g clip-path="url(#clip0_257_1397)">
<path d="M287.619 101.449C288.887 101.184 290.038 100.525 290.906 99.5661C291.76 98.6604 292.352 97.5415 292.621 96.3276C292.84 95.3581 292.983 94.3731 293.049 93.3815C293.231 89.297 291.48 87.7153 287.827 88.6116C286.925 88.8325 286.019 89.0371 285.148 89.2781C284.905 93.5899 284.698 97.8753 284.49 102.158C285.497 101.92 286.541 101.709 287.619 101.443V101.449ZM261.081 144.581C261.852 133.292 262.68 121.889 263.502 110.602C264.328 99.2289 265.146 87.8748 265.957 76.5399C274.692 74.0679 283.416 71.6339 292.129 69.2381C292.999 68.9958 293.901 68.7498 294.772 68.5138C300.434 66.9811 304.472 67.2184 306.919 69.1916C309.396 71.1887 310.982 75.3336 311.637 81.591C311.805 83.1953 311.871 84.8085 311.837 86.4212C311.733 91.2187 310.717 95.5845 308.785 99.4343C306.854 103.284 304.208 106.175 301.025 108.027C306.081 116.739 311.343 125.683 316.735 134.771C308.229 135.968 299.757 137.252 291.387 138.622C288.72 132.106 286.123 125.619 283.631 119.104C283.241 126.169 282.885 133.195 282.564 140.185C275.368 141.572 268.207 143.037 261.081 144.581ZM235.721 125.772C235.249 120.681 234.743 115.591 234.306 110.501C234.221 109.278 234.103 108.055 234.019 106.86C234.007 105.412 233.961 103.963 234.019 102.487C233.893 103.678 233.737 104.583 233.523 105.291C233.335 105.911 233.177 106.632 233.007 107.242C232.63 108.614 232.202 109.869 231.834 111.199C230.252 116.852 228.671 122.496 227.092 128.131C229.942 127.354 232.866 126.52 235.721 125.772ZM197.073 161.693C201.878 149.392 206.751 137.129 211.417 124.869C216.045 112.717 220.644 100.485 225.172 88.2915C232.131 86.2731 239.127 84.2283 246.122 82.2111C248.31 92.5531 250.614 102.931 252.964 113.3C255.334 123.764 257.925 134.221 260.526 144.712C252.774 146.49 245.049 148.381 237.332 150.302C237.029 147.599 236.797 144.842 236.563 142.112C231.937 143.315 227.377 144.577 222.751 145.865C221.87 148.917 220.989 151.941 220.146 154.91C212.454 157.114 204.727 159.404 197.069 161.693H197.073ZM170.008 149.588C170.601 149.337 171.161 149.127 171.787 148.822C174.372 147.567 176.364 145.965 177.857 143.978C179.351 141.991 180.458 139.363 181.311 136.027C181.492 135.319 181.646 134.704 181.721 134.188C181.801 133.654 181.904 133.258 181.95 132.942C182.566 128.753 181.958 125.88 180.394 124.228C178.927 122.679 176.921 122.254 174.143 123.106L173.097 123.43C171.777 132.239 170.388 141.047 169.071 149.858C169.342 149.805 169.691 149.668 170.004 149.588H170.008ZM144.169 179.441C146.196 167.633 148.172 155.794 150.181 143.988C152.191 132.183 154.2 120.343 156.262 108.507C164.684 106.031 173.18 103.567 181.598 101.101C189.294 98.8519 195.124 100.097 199.309 104.793C203.526 109.522 205.06 116.697 203.807 126.509C202.602 135.943 199.506 144.333 194.463 151.715C189.396 159.134 182.945 164.644 175.282 168.33C173.867 169.02 172.411 169.622 170.923 170.134C162.002 173.165 153.082 176.267 144.165 179.441H144.169ZM121.384 161.868C121.51 156.305 121.598 150.769 121.761 145.206C121.747 143.871 121.804 142.537 121.825 141.203C121.99 139.616 122.12 137.999 122.354 136.385C122.162 137.422 121.89 138.442 121.542 139.438C121.277 140.168 121.092 140.886 120.849 141.586C120.328 143.092 119.728 144.577 119.213 146.017C117.034 152.285 114.852 158.611 112.67 164.908C115.563 163.875 118.49 162.843 121.38 161.868H121.384ZM79.1894 204.775C85.4507 190.309 91.6554 175.948 97.6864 161.855C103.677 147.861 109.604 134.034 115.469 120.373C122.394 118.355 129.357 116.327 136.356 114.291C137.319 125.495 138.399 136.558 139.595 147.48C140.783 158.321 142.157 169.045 143.579 179.659C135.808 182.487 128.038 185.344 120.231 188.285C120.278 185.389 120.29 182.493 120.372 179.541C115.738 181.255 111.061 183.026 106.396 184.825C105.128 188.297 103.965 191.686 102.766 195.102C94.9181 198.27 87.0349 201.522 79.1894 204.775ZM20.553 231.999C27.1175 220.15 33.6719 208.525 40.0641 197.132C46.3342 185.96 52.608 175.002 58.7132 164.181C59.1971 163.308 59.732 162.463 60.315 161.652C61.1103 160.544 62.1949 159.101 63.5363 157.416C64.0685 156.746 64.631 156.128 65.1607 155.482C64.6323 155.985 64.1038 156.487 63.5426 156.989C62.4529 157.964 61.4274 158.82 60.4182 159.58C59.4091 160.339 58.5937 160.88 57.8287 161.156C50.859 163.679 43.8905 166.27 36.8869 168.855C40.7473 159.315 44.5725 149.812 48.3965 140.447C65.2115 135.237 82.024 130.169 98.8339 125.243C93.4157 134.64 87.9522 144.23 82.4359 153.913C76.8323 163.759 71.1397 173.776 65.3583 183.967C64.3277 185.539 63.3337 187.086 62.3384 188.688C61.1355 190.23 60.0382 191.689 58.9058 193.233C59.3613 192.871 59.8117 192.472 60.2735 192.118C60.8284 191.694 61.752 191.044 62.9726 190.203C64.1692 189.378 65.0047 188.848 65.4892 188.654C72.6375 185.79 79.7481 182.949 86.9292 180.168C83.3972 188.686 79.9319 197.319 76.3973 205.98C57.9419 214.144 39.3406 222.732 20.553 231.999Z" fill="white"/>
<path d="M133.962 105.626C136.461 95.056 138.878 84.5094 141.333 73.9615C143.793 63.3923 146.25 52.8369 148.704 42.2953C156.076 42.2803 163.447 42.2865 170.861 42.2953C173.999 49.6511 177.287 56.7194 180.648 63.4952C181.013 64.2321 181.48 65.1635 181.793 66.3559C182.039 67.2886 182.341 68.5074 182.693 70.0376C183.07 71.6694 183.421 73.2636 183.808 74.8326C183.72 74.0795 183.6 73.3263 183.543 72.5807C183.433 70.9375 183.41 69.2895 183.476 67.6438C183.545 66.1112 183.747 64.5875 184.081 63.0898C185.51 56.1746 186.813 49.2419 188.283 42.2715L210.273 42.2928C208.556 50.2197 206.876 58.1767 205.163 66.0961C203.44 74.077 201.766 81.9963 200.055 89.9232C191.98 91.6948 183.947 93.489 175.957 95.3057C172.452 89.7726 169.014 83.9056 165.687 77.795C165.123 76.7582 164.697 75.528 164.328 74.1159C164.056 73.074 163.816 71.697 163.552 69.956C163.381 68.8263 163.289 67.7053 163.157 66.5668C163.107 66.281 163.077 65.992 163.069 65.702C163.031 66.3848 163.02 67.0677 163.037 67.7505C163.127 71.238 162.794 74.7236 162.046 78.1314C160.47 85.3378 159.106 92.504 157.642 99.679C149.736 101.608 141.871 103.584 133.967 105.628L133.962 105.626ZM73.4252 93.8421C75.5303 85.2688 77.6681 76.7143 79.7808 68.1434C81.8935 59.5726 83.9206 51.0118 86.0106 42.4447C93.5503 42.4284 101.089 42.3882 108.67 42.3719C106.866 49.7528 105.075 57.1416 103.3 64.5383C101.518 71.9142 99.742 79.2955 97.972 86.6822C96.7854 91.6492 97.6775 94.1622 100.777 94.2438C101.168 94.2701 101.562 94.2528 101.949 94.1923C102.201 94.1459 102.605 93.9777 103.12 93.7543C104.987 92.9421 106.447 91.8839 107.458 90.5007C108.484 89.0973 109.321 87.1441 109.94 84.5483C111.617 77.5314 113.298 70.5071 114.98 63.4751C116.663 56.4432 118.341 49.4038 120.013 42.3568L142.589 42.3066C141.032 49.0013 139.462 55.6989 137.877 62.3994C136.293 69.0999 134.724 75.8046 133.17 82.5135C131.466 89.7751 127.984 96.0802 122.716 101.593C117.362 107.195 110.328 111.886 101.681 115.538C100.884 115.874 100.009 116.252 99.0906 116.599C98.172 116.945 97.2032 117.258 96.2884 117.522C95.1987 117.837 94.138 118.292 93.0684 118.495C92.1612 118.668 91.5182 118.621 91.1017 118.687C82.9807 119.921 77.38 118.562 74.4507 114.384C71.427 110.075 71.1364 103.13 73.4202 93.8409L73.4252 93.8421ZM42.4246 85.7219C43.8893 85.4709 45.2457 84.7491 46.5178 83.5165C47.7237 82.3465 48.6721 80.9387 49.3024 79.3829C49.8135 78.1253 50.2266 76.8302 50.5381 75.5092C51.887 70.0288 50.4953 67.5208 46.3933 67.9777C45.3476 68.0945 44.3423 68.2162 43.2954 68.3129C41.8206 74.3506 40.3031 80.3871 38.8259 86.3797C40.0401 86.1675 41.1701 85.9604 42.4246 85.7219ZM0 149.614C4.59655 131.774 9.04839 113.952 13.5808 96.1405C18.1131 78.3285 22.648 60.5077 27.1615 42.6669C36.92 42.6376 46.7347 42.5932 56.6056 42.5338C57.5682 42.5338 58.493 42.5476 59.5374 42.5414C65.8616 42.5087 70.0429 44.1732 72.0864 47.3904C74.0996 50.5524 74.7288 55.9261 73.7222 63.6044C73.4732 65.5504 73.1199 67.4816 72.6639 69.3899C71.3446 74.8999 69.0154 80.1191 65.7936 84.7843C62.6316 89.3885 59.0517 92.9195 55.0843 95.238C58.199 106.006 61.5062 116.198 65.006 125.812C55.2626 129.025 45.5074 132.384 35.7406 135.887C34.7339 127.542 33.7273 118.968 32.8465 110.145C30.3853 119.988 27.9656 129.829 25.4628 139.673C16.9727 142.855 8.48509 146.167 0 149.609V149.614Z" fill="white"/>
<path fill-rule="evenodd" clip-rule="evenodd" d="M248.986 49.8764C249.291 49.8764 249.015 49.6769 248.986 49.8137C248.986 49.8852 248.712 49.8777 248.986 49.8764ZM249.96 49.3844L250.487 49.461C251.32 49.7409 250.979 49.8526 251.67 49.6191C251.625 49.0994 251.114 48.5886 250.804 48.1417L249.832 48.2886C249.969 48.8622 249.814 48.7505 249.96 49.3844ZM257.615 18.8994H257.982V18.5342C257.698 18.607 257.615 18.5618 257.615 18.8994ZM259.834 23.3857C259.949 23.4002 260.061 23.4364 260.163 23.4924C260.306 23.4891 260.447 23.5192 260.576 23.5803C260.606 23.5431 260.626 23.499 260.634 23.452C260.643 23.405 260.639 23.3567 260.623 23.3116C260.561 23.171 260.152 23.2338 259.719 23.3292L259.834 23.3857ZM258.528 22.8535C258.574 22.8829 258.623 22.9097 258.672 22.9338C258.893 22.9723 259.108 23.0381 259.313 23.1296C259.319 23.0657 259.314 23.0012 259.299 22.9388C259.221 22.5284 258.922 22.6677 258.528 22.7003L258.344 22.7116C258.409 22.7515 258.47 22.7992 258.524 22.8535H258.528ZM257.564 25.364L258.148 25.4267C258.235 25.3522 258.347 25.3113 258.462 25.3112C258.747 25.3112 259.044 25.256 259.217 25.5359C259.387 25.5072 259.548 25.4393 259.687 25.3376C259.505 25.3307 259.33 25.2704 259.183 25.1644C259.041 25.1991 258.896 25.2201 258.749 25.2271C258.774 25.1343 258.811 25.0452 258.86 24.9623L258.426 24.7715C258.289 24.7796 258.153 24.7593 258.025 24.712C257.897 24.6647 257.78 24.5913 257.682 24.4966C257.615 24.4488 257.536 24.4193 257.454 24.4112V25.1468C257.507 25.2092 257.543 25.2833 257.56 25.3627L257.564 25.364ZM253.491 24.9648C253.496 25.0618 253.473 25.1581 253.424 25.2422C253.509 25.2628 253.586 25.3068 253.647 25.3692C253.708 25.4316 253.75 25.5098 253.769 25.5949C253.903 25.5169 254.055 25.4738 254.21 25.4694H254.9C255.421 25.4694 255.942 25.9803 255.944 26.5C255.952 26.634 255.948 26.7685 255.931 26.9016C256.095 26.9403 256.265 26.9547 256.434 26.9443L258.14 26.4422L258.155 26.397H257.429C257.309 26.3991 257.194 26.354 257.107 26.2715C256.893 26.2326 256.792 26.0619 256.643 25.9301C256.453 25.6525 256.218 25.4082 255.948 25.2071C255.832 25.1348 255.729 25.0436 255.644 24.9372C255.557 24.8758 255.493 24.7876 255.461 24.6861L254.882 24.9773C254.767 25.0363 254.667 24.9924 254.55 25.0313C254.299 25.1129 254.299 25.1493 253.997 25.1481C253.902 25.1537 253.807 25.1311 253.725 25.083C253.643 25.035 253.577 24.9637 253.536 24.8782C253.523 24.9086 253.507 24.9373 253.487 24.9635L253.491 24.9648ZM252.97 26.6657C253.001 26.6843 253.03 26.7062 253.057 26.7309L252.97 26.6657ZM252.302 28.3527C252.241 28.2396 252.227 28.107 252.263 27.9837L252.302 28.3527ZM252.176 31.1218L252.679 31.2209L252.527 30.8783C252.454 30.9936 252.338 31.0756 252.205 31.1067C252.234 31.0691 252.183 31.1168 252.171 31.1256L252.176 31.1218ZM215.155 0.368209C214.735 0.231387 213.705 -0.146441 214.037 0.738508C214.296 1.43141 215.65 2.00129 216.236 2.58372C216.766 3.10841 217.228 3.71345 217.809 4.18291C218.636 4.85321 219.319 5.9026 220.186 6.44236C220.582 6.68713 221.281 7.32103 221.639 7.67124C221.998 8.02145 221.918 8.04782 222.16 8.37041C222.447 8.75829 222.538 8.62147 222.939 8.93151C223.256 9.18256 222.991 8.96289 223.24 9.2403C223.349 9.37513 223.472 9.49725 223.609 9.60433C224.121 10.0098 224.588 10.6349 224.906 10.8671C225.174 11.0642 225.451 11.1621 225.731 11.3818C229.593 14.3943 227.144 12.4111 230.487 14.5462C230.758 14.7195 230.864 14.8488 231.172 15.0785L232.646 16.286C233.537 16.9689 233.966 17.3756 235.103 17.85C236.208 18.312 235.24 18.6032 236.375 19.2597L236.986 19.0086V19.3739L236.5 19.7417L237.843 19.7354C237.83 20.4773 237.941 20.0856 237.507 20.3731C237.288 20.5201 237.111 20.7218 236.994 20.958C235.971 21.1903 236.088 21.3007 235.162 20.8451L235.776 21.5731C235.786 21.9309 235.873 22.0074 236.028 22.3024H237.006L237.357 21.5668L238.457 21.8053L238.475 25.3364C238.475 26.2452 238.888 26.8025 238.892 27.6648C238.865 27.929 238.865 28.1952 238.892 28.4594L239.366 31.7858L238.881 32.3971H239.244C239.244 33.0524 239.327 33.3335 239.433 33.9248C239.585 34.772 239.404 34.752 239.378 35.4449C239.351 36.1378 239.568 36.2746 239.511 37.0127C239.395 38.6068 239.407 38.6344 239.774 40.1884C239.425 40.4232 239.179 40.6353 239.063 40.9416C238.913 41.337 238.957 41.278 238.6 41.4537L237.593 42.0274C238.134 42.8245 237.318 42.5985 236.451 43.9278L235.171 46.2952V47.5128C235.171 48.4455 236.599 49.6254 237.31 50.1325C237.777 50.4652 237.868 50.4087 238.4 50.6258C239.522 51.0815 240.37 51.7781 241.464 52.3116C241.877 52.5137 242.157 52.5915 242.57 52.7874C244.637 53.7715 244.51 54.846 244.866 56.8393C244.943 57.2774 245.318 60.6728 245.517 60.9578L246.479 61.7021L247.94 60.9628C248.438 61.6989 248.828 62.502 249.098 63.3478L249.44 64.3143C249.574 64.9633 249.614 65.2721 249.922 65.9461C250.439 67.0759 250.522 67.2817 250.74 68.7943L251.781 71.419C253.078 71.4115 253.805 69.2386 253.761 68.1554C253.726 67.293 253.4 66.2235 253.336 65.321C253.336 64.8503 253.615 64.3005 253.677 63.8411C253.755 63.0879 254.15 61.8452 253.22 61.5201C252.942 61.4235 252.439 61.4574 251.997 61.4072C251.077 61.2992 251.066 60.6327 250.865 59.8544H251.719L252.089 60.462C252.539 60.0301 252.97 59.0297 252.543 58.5427C251.704 57.5824 252.093 58.2088 252.04 57.7318L251.462 57.664C251.421 57.2008 251.397 57.2749 251.188 56.9623C251.062 56.7703 250.916 56.5857 250.782 56.3899C250.239 55.8175 250.413 56.0673 250.35 54.9903H249.74L249.979 54.1368C249.616 54.0991 249.794 54.0953 249.697 54.0012L249.598 53.8418C248.753 52.6807 249.304 53.3685 249.598 51.3313L248.38 51.8246C248.184 50.8781 248.442 50.7965 248.858 49.8739L248.245 49.5112C248.622 49.4108 249.939 48.5208 249.755 48.0814C249.571 47.6421 249.206 48.3061 248.874 48.4291L247.636 48.5409L248.366 48.0488L247.513 48.1743L247.528 46.9329L248.241 47.5605L248.724 46.5839C248.66 46.4545 248.565 46.3429 248.447 46.2588C248.348 46.1827 248.234 46.1283 248.111 46.0994C248.111 45.7228 248.085 45.6576 248.313 45.4517L249.571 44.1437L250.059 44.2693L251.033 43.5337C251.033 42.704 250.203 42.5671 249.71 42.0512L249.313 41.5943C249.769 40.9064 250.648 40.3541 250.683 40.0303C250.706 39.8219 250.653 39.955 250.721 39.7014C250.897 39.0449 251.558 38.8428 252.105 38.5353C252.166 39.2068 252.265 38.829 252.59 38.8842L253.452 39.2608L254.304 38.7688C253.415 38.9006 253.423 38.8842 252.594 38.5353C252.747 38.106 252.651 38.4399 252.747 38.2026C252.928 37.7974 253.161 37.4176 253.44 37.0729L252.826 36.4666C253.036 36.1792 253.466 35.9093 253.759 35.6909C253.946 35.5503 253.885 35.6909 254.044 35.4888C254.127 35.3467 254.167 35.1835 254.158 35.0193C254.085 35.1067 253.997 35.1814 253.9 35.2403C253.785 35.4813 253.59 35.5177 253.354 35.5189L253.237 35.8742C253.036 36.4842 252.104 36.1804 252.307 35.5704L252.533 34.8813C252.567 34.7772 252.636 34.6876 252.727 34.6266C252.818 34.5656 252.927 34.5369 253.036 34.5448L252.815 33.7917L253.42 32.6921C252.879 32.839 253.191 32.8842 252.745 33.1214C252.693 33.149 252.293 33.2683 252.278 33.2695C252.181 33.2783 252.377 33.3637 251.835 33.1879C251.466 33.0624 251.733 33.0787 251.577 32.716C251.422 32.354 251.331 31.9679 251.308 31.5749C251.016 31.4143 251.056 31.1419 251.056 30.8632C251.056 30.7612 251.087 30.6617 251.146 30.5785C251.205 30.4952 251.289 30.4324 251.386 30.3988C251.46 30.3478 251.547 30.3187 251.637 30.3147H251.605C251.778 30.2293 252.006 30.1138 252.202 30.1452L251.935 29.5452C251.874 29.626 251.788 29.6856 251.691 29.7157C251.594 29.7459 251.49 29.7451 251.393 29.7136C251.296 29.682 251.211 29.6211 251.151 29.5394C251.09 29.4578 251.057 29.3593 251.055 29.2577C251.055 29.2075 251.055 29.1523 251.055 29.0933C251.023 29.0829 250.993 29.0699 250.964 29.0544C250.364 28.9766 250.399 27.9711 251.024 27.9673C251.119 27.9669 251.211 27.9934 251.291 28.0439C251.33 27.9707 251.384 27.9063 251.449 27.8547C251.514 27.8031 251.588 27.7653 251.669 27.7439C251.634 27.656 251.616 27.5621 251.618 27.4675C251.619 27.3729 251.64 27.2796 251.678 27.1929C251.678 26.9983 251.821 26.7837 251.908 26.6067C251.928 26.4739 251.997 26.3537 252.103 26.2702L252.079 26.2954L252.099 26.2313C252.122 26.1613 252.161 26.0974 252.212 26.0445C252.264 25.9915 252.326 25.9508 252.396 25.9254C252.465 25.9001 252.539 25.8907 252.613 25.898C252.686 25.9054 252.757 25.9292 252.82 25.9677C252.82 25.8033 252.796 25.6213 252.88 25.4744C252.779 25.4454 252.69 25.3843 252.626 25.3003C252.562 25.2164 252.527 25.1141 252.527 25.0087C252.527 24.7916 252.492 24.5719 252.653 24.3962C252.687 24.2574 252.754 24.1285 252.846 24.0196C252.872 23.9549 252.91 23.8962 252.96 23.8475C253.01 23.7988 253.069 23.7612 253.135 23.7372C253.166 23.6956 253.202 23.6588 253.244 23.628C253.062 23.4497 253.096 23.2238 253.094 22.9928C253.094 22.9264 253.107 22.8606 253.133 22.7994C253.159 22.7383 253.197 22.683 253.245 22.6372C253.293 22.5913 253.35 22.5557 253.412 22.5327C253.475 22.5097 253.541 22.4997 253.608 22.5033V22.4179C253.608 21.7752 254.583 21.7702 254.587 22.4179V22.5033L254.501 22.4179C254.58 22.5227 254.635 22.6431 254.663 22.7711C254.691 22.8991 254.691 23.0316 254.663 23.1595C254.635 23.2875 254.579 23.4079 254.5 23.5125C254.421 23.6172 254.321 23.7037 254.205 23.766C254.225 23.8092 254.239 23.8548 254.246 23.9016C254.479 23.8299 254.727 23.8217 254.964 23.8777C255.098 23.8069 255.237 23.7477 255.381 23.7008C255.098 23.3982 255.129 23.1045 255.129 22.7305C255.398 22.4332 255.747 22.2199 256.135 22.1166C256.522 22.0132 256.932 22.0241 257.313 22.148C257.356 22.1527 257.398 22.1603 257.439 22.1706C257.565 22.0614 257.623 21.9472 257.734 21.6007H257.173C257.085 21.6752 256.973 21.7162 256.858 21.7162H256.168C255.939 21.7162 255.65 21.5254 255.49 21.3647C254.923 21.2493 255.003 20.402 255.587 20.3995C255.923 20.3995 255.965 20.4509 256.165 20.6505L256.542 20.7346C256.63 20.6595 256.741 20.6181 256.857 20.6179H257.698C257.758 20.5299 257.824 20.4461 257.895 20.3668H257.285L257.646 19.3915L256.911 18.9082L258.815 17.7597C259.229 17.5413 259.539 17.5212 259.941 17.2952C260.444 17.0128 260.434 16.7216 260.745 16.5145C260.976 16.3613 261.582 16.2559 261.909 16.0877C262.389 15.8366 262.389 15.7111 262.822 15.4149L264.662 14.1107C265.832 13.2031 266.985 12.3257 268.035 11.2638C270.196 9.07712 269.737 9.80391 270.586 9.05578L271.341 8.23234C271.882 8.35787 272.666 8.72189 273.174 8.46581C272.96 7.6838 273.129 8.57878 272.068 7.25324C272.599 6.99592 274.445 7.00219 274.757 6.87667L275.36 6.38336L272.797 6.39591C272.904 5.98796 273.002 5.96536 273.349 5.73063C275.042 4.59087 275.714 5.0779 275.227 4.06993C274.597 4.06993 273.339 4.73397 272.879 5.15824C272.023 5.93775 272.389 5.19087 272.784 4.69003C273.508 3.7737 273.358 4.0624 273.754 2.85988C272.89 2.85988 271.903 4.92978 271.06 5.17581L269.86 5.19338C269.851 4.64795 269.882 4.10259 269.952 3.56156L269.115 2.7582C269.009 3.22264 268.896 3.28917 268.876 3.85529L268.54 7.75911C267.911 8.09803 267.335 8.70431 266.645 9.15996C264.766 10.3989 263.854 10.5897 262.261 11.4947C260.99 12.2165 261.57 12.1223 260.02 12.4324L260.389 12.9169C259.712 13.124 259.142 13.2935 258.437 13.2935L258.555 12.5629C257.685 12.7989 258.442 13.2546 257.827 13.6563C257.665 13.7579 257.484 13.8238 257.295 13.8496C256.665 13.9349 257.227 13.7241 256.791 13.881C256.455 13.9977 256.78 13.8646 256.592 14.0065C256.267 14.2889 255.937 14.6027 255.561 14.8136C254.545 15.3847 254.384 15.1488 253.2 15.1488C252.2 15.1488 251.639 15.3471 250.763 15.6509C250.35 14.7885 250.651 14.8902 249.78 14.4383L249.906 15.4124C249.245 15.4011 249.127 14.9253 248.802 14.4433C249.147 14.4044 249.776 14.0303 249.774 13.586C249.774 13.1178 249.531 13.4604 249.416 12.8441C249.357 12.5215 249.44 12.1387 249.37 11.7897C249.287 11.3679 248.817 10.66 248.562 10.2834L245.719 8.61895C244.922 8.40556 243.758 9.11352 243.455 9.65077L242.566 11.6805C242.346 12.745 243.158 14.5927 242.645 15.273C242.414 15.5818 242.755 15.3496 242.244 15.4814C241.596 15.6283 241.741 15.5115 241.254 15.2065C241.002 15.0483 240.876 15.0722 240.608 14.8789C240.185 14.5801 240.145 14.1998 239.514 14.1446C239.035 14.1031 239.207 14.2061 238.854 14.1621C237.768 14.0253 237.685 13.9764 236.351 13.9048C235.56 12.7783 234.49 11.8746 233.246 11.2813C232.574 10.95 231.918 10.6437 231.215 10.5131L229.899 10.0901C229.436 9.95328 227.557 8.46832 227.043 8.10932L227.16 7.25575C225.477 7.43274 225.592 7.33985 224.224 6.66579C223.626 6.3708 223.241 6.01306 222.684 5.64653C220.877 4.4553 221.315 4.26575 221.124 3.5465L220.786 2.5423C220.678 1.88832 220.808 2.00631 220.535 1.2042C220.058 1.2042 219.799 1.81049 219.563 2.30506C218.989 2.15568 219.245 2.01761 218.404 1.98497C217.881 1.96614 217.376 1.30839 216.652 0.709636L215.771 0.0117188C215.329 0.11716 215.49 0.129712 215.15 0.368209H215.155Z" fill="white"/>
<path fill-rule="evenodd" clip-rule="evenodd" d="M252.952 14.9049C253.821 14.9049 253.434 14.856 253.582 14.7982C254.574 14.4053 254.382 14.4217 255.387 13.5518C255.01 12.7672 255.755 12.2086 253.059 11.9814C252.692 11.9814 251.927 12.358 251.602 12.4835C251.576 12.4948 251.279 12.6091 251.251 12.6216C250.864 12.8589 251.139 12.7271 250.852 13.0848C250.836 13.1049 250.811 13.1313 250.794 13.1501C250.564 13.4262 250.73 12.9882 250.555 13.4601C250.408 13.8568 250.762 14.1442 251.039 14.3878C251.542 14.8359 252.059 14.9125 252.954 14.9074" fill="white"/>
<path fill-rule="evenodd" clip-rule="evenodd" d="M231.074 33.4088V33.8958C230.483 33.8858 230.342 33.6987 229.85 34.0213C229.516 34.2372 229.075 34.8247 230.212 35.0117L230.425 35.0444C230.938 35.1636 231.038 35.5113 231.799 35.1071C232.894 34.5247 232.952 35.1071 233.732 34.4619C234.171 34.0941 234.158 34.0527 234.702 33.7238C235.91 32.9933 235.071 32.1134 234.36 31.9326C232.502 31.9427 232.273 33.3059 231.072 33.4113" fill="white"/>
<path fill-rule="evenodd" clip-rule="evenodd" d="M255.602 30.6039C253.943 30.9528 253.534 32.247 254.369 32.9487C254.389 32.965 254.415 32.9888 254.436 33.0039C255.443 33.7257 257.068 33.0867 257.171 32.1252V31.9545C257.199 31.2428 256.92 30.8913 256.146 30.6428C256.058 30.6114 255.967 30.5903 255.874 30.58C255.591 30.5474 255.748 30.5712 255.596 30.6039" fill="white"/>
<path fill-rule="evenodd" clip-rule="evenodd" d="M236.82 34.8391C237.312 34.9998 237.104 34.976 237.796 34.8391V34.3521C237.334 34.2015 236.996 34.081 236.822 34.8442" fill="white"/>
<path fill-rule="evenodd" clip-rule="evenodd" d="M257.548 29.7378C257.548 30.3453 258.031 30.3014 258.404 30.2198C258.34 29.9537 258.326 29.8068 258.11 29.6424C257.894 29.4779 257.545 29.4277 257.548 29.7378Z" fill="white"/>
<path fill-rule="evenodd" clip-rule="evenodd" d="M261.818 29.2233C261.997 29.2233 261.996 29.0714 262.061 28.9723C261.837 28.6723 261.599 28.6221 261.082 28.6133C261.178 28.9648 261.399 29.2196 261.818 29.2183" fill="white"/>
<path fill-rule="evenodd" clip-rule="evenodd" d="M260.692 24.1198V24.3634C261.321 24.5165 261.034 24.5554 261.911 24.1123C261.366 24.1035 261.156 23.9341 260.691 24.1198" fill="white"/>
<path fill-rule="evenodd" clip-rule="evenodd" d="M258.263 26.689L259.12 27.0505L259.363 26.7995C258.823 26.5711 258.321 26.2296 258.263 26.6828" fill="white"/>
<path fill-rule="evenodd" clip-rule="evenodd" d="M234.605 31.5634C235.048 31.7654 235.223 31.424 235.457 31.0713C234.845 31.0889 234.857 31.1843 234.605 31.5634Z" fill="white"/>
<path fill-rule="evenodd" clip-rule="evenodd" d="M233.67 19.263H234.299C234.26 18.8149 234.258 18.8136 233.823 18.7822L233.67 19.263Z" fill="white"/>
<path fill-rule="evenodd" clip-rule="evenodd" d="M233.952 23.5299C234.51 23.6554 234.273 23.8023 234.562 23.4044C234.501 23.2964 234.481 23.1609 234.311 23.1621C234.023 23.1621 233.953 23.2475 233.947 23.5299" fill="white"/>
<path fill-rule="evenodd" clip-rule="evenodd" d="M236.667 28.9952C236.983 29.4207 237.006 29.2789 237.277 28.8697C237.277 28.8697 237.049 28.7441 237.032 28.7441C236.811 28.7441 236.698 28.8069 236.667 28.9952Z" fill="white"/>
<path fill-rule="evenodd" clip-rule="evenodd" d="M254.016 31.3398C253.89 30.8942 253.599 30.8578 253.035 30.6143C253.191 30.8251 253.665 31.2419 254.016 31.3398Z" fill="white"/>
<path fill-rule="evenodd" clip-rule="evenodd" d="M258.395 28.5156C258.705 28.306 258.773 28.3047 258.881 27.9043C258.365 27.9495 258.393 27.9758 258.395 28.5156Z" fill="white"/>
<path fill-rule="evenodd" clip-rule="evenodd" d="M234.681 22.6728L234.926 22.9151C235.304 22.6402 235.124 22.9929 235.168 22.4268C234.881 22.4531 234.722 22.4167 234.681 22.6778" fill="white"/>
<path fill-rule="evenodd" clip-rule="evenodd" d="M259.608 27.0466C259.825 27.3655 259.671 27.2977 260.099 27.4106C260.071 27.1081 260.177 27.1784 259.998 27.014C259.973 26.987 259.941 26.966 259.906 26.9528C259.871 26.9395 259.833 26.9343 259.796 26.9374C259.758 26.9405 259.722 26.952 259.69 26.9709C259.657 26.9898 259.629 27.0156 259.608 27.0466Z" fill="white"/>
<path fill-rule="evenodd" clip-rule="evenodd" d="M263.825 16.4303C264.319 16.3135 264.192 16.3964 264.312 16.0625C263.993 15.937 263.866 15.9231 263.825 16.4303Z" fill="white"/>
<path fill-rule="evenodd" clip-rule="evenodd" d="M228.999 33.4195C229.566 33.3693 229.213 33.5451 229.486 33.1685C229.262 33.0593 229.333 33.0756 228.997 33.043L228.999 33.4195Z" fill="white"/>
<path fill-rule="evenodd" clip-rule="evenodd" d="M249.601 50.8474V50.3604C249.063 50.5072 249.064 50.7068 249.601 50.8474Z" fill="white"/>
<path d="M235.054 23.6328L234.688 23.6348L234.69 24L235.056 23.9981L235.054 23.6328Z" fill="white"/>
<path fill-rule="evenodd" clip-rule="evenodd" d="M253.542 34.2646C254.032 34.1316 253.896 34.2295 253.906 33.6533C253.503 33.9508 253.769 33.7876 253.542 34.2646Z" fill="white"/>
<path fill-rule="evenodd" clip-rule="evenodd" d="M236.131 20.1077C235.854 19.7312 236.209 19.9107 235.642 19.8667C235.778 20.3688 235.732 20.2948 236.131 20.1077Z" fill="white"/>
<path fill-rule="evenodd" clip-rule="evenodd" d="M258.723 21.0843C259.144 20.97 259.1 21.0165 259.208 20.5947C258.721 20.7278 258.935 20.6512 258.723 21.0843Z" fill="white"/>
<path fill-rule="evenodd" clip-rule="evenodd" d="M256.609 13.3015C256.735 13.1571 256.644 13.4069 256.771 13.0994C256.889 12.8144 256.823 13.0353 256.849 12.6914H256.609V13.3015Z" fill="white"/>
<path fill-rule="evenodd" clip-rule="evenodd" d="M234.909 19.9922H235.276V19.627C234.998 19.7023 234.918 19.6558 234.911 19.9935" fill="white"/>
<path fill-rule="evenodd" clip-rule="evenodd" d="M250.308 45.972C250.676 45.8728 250.576 45.972 250.672 45.6055H250.306L250.308 45.972Z" fill="white"/>
<path fill-rule="evenodd" clip-rule="evenodd" d="M250.839 54.1284C250.714 53.797 250.84 53.8773 250.349 53.7656C250.475 54.0983 250.349 54.0167 250.839 54.1284Z" fill="white"/>
<path fill-rule="evenodd" clip-rule="evenodd" d="M237.371 23.6323C237.535 23.724 237.506 23.6989 237.738 23.7579V23.3926C237.524 23.444 237.411 23.4089 237.373 23.6436" fill="white"/>
<path d="M256.922 27.9307L256.556 27.9326L256.557 28.1761L256.923 28.1742L256.922 27.9307Z" fill="white"/>
<path fill-rule="evenodd" clip-rule="evenodd" d="M231.55 31.0921H232.04C231.902 30.9076 231.626 30.6403 231.55 31.0921Z" fill="white"/>
<path fill-rule="evenodd" clip-rule="evenodd" d="M252.07 32.9327V32.5674H251.827C251.909 32.9013 251.778 32.7569 252.073 32.9314" fill="white"/>
<path fill-rule="evenodd" clip-rule="evenodd" d="M253.532 32.3165V31.9512H253.288C253.37 32.2838 253.239 32.1407 253.54 32.3152" fill="white"/>
<path fill-rule="evenodd" clip-rule="evenodd" d="M251.827 55.7091V55.458H251.461C251.655 55.7329 251.485 55.5999 251.828 55.699" fill="white"/>
<path d="M251.297 43.5422L250.931 43.5459L250.932 43.6676L251.299 43.664L251.297 43.5422Z" fill="white"/>
<path fill-rule="evenodd" clip-rule="evenodd" d="M250.087 50.358L250.123 50.3216C250.123 50.3216 250.076 50.3455 250.087 50.358ZM249.843 50.2325C249.969 50.358 250.283 50.0543 249.984 50.166C249.98 50.1723 249.636 50.0342 249.843 50.2375V50.2325Z" fill="white"/>
<path fill-rule="evenodd" clip-rule="evenodd" d="M238.025 31.9114C238.151 32.0369 238.465 31.7331 238.166 31.8448C238.166 31.8448 237.82 31.708 238.025 31.9114Z" fill="white"/>
<path fill-rule="evenodd" clip-rule="evenodd" d="M255.064 44.9729C255.189 45.0984 255.505 44.7959 255.206 44.9064C255.206 44.9064 254.859 44.7695 255.064 44.9729Z" fill="white"/>
<path fill-rule="evenodd" clip-rule="evenodd" d="M249.367 52.7968C249.367 52.9399 249.632 53.0705 249.556 52.7968C249.481 52.5231 249.867 52.7968 249.501 52.7617C249.346 52.7478 249.366 52.5508 249.367 52.7981" fill="white"/>
<path fill-rule="evenodd" clip-rule="evenodd" d="M252.559 32.8082C252.559 32.9513 252.823 33.0806 252.747 32.8082C252.672 32.5358 253.058 32.8082 252.691 32.7718C252.537 32.7593 252.557 32.5622 252.559 32.8095" fill="white"/>
<path fill-rule="evenodd" clip-rule="evenodd" d="M252.119 42.1874C252.119 42.3305 252.383 42.4611 252.308 42.1874C252.232 41.9138 252.619 42.1874 252.251 42.1523C252.098 42.1385 252.118 41.9414 252.125 42.1887" fill="white"/>
<path fill-rule="evenodd" clip-rule="evenodd" d="M256.813 29.255C256.813 29.3982 257.077 29.5274 257.002 29.255C256.926 28.9827 257.312 29.2551 256.945 29.2186C256.791 29.2061 256.812 29.0078 256.813 29.2563" fill="white"/>
<path fill-rule="evenodd" clip-rule="evenodd" d="M230.463 33.2902C230.463 33.4333 230.727 33.5626 230.653 33.2902C230.579 33.0178 230.962 33.2902 230.596 33.2538C230.443 33.2413 230.462 33.0429 230.463 33.2915" fill="white"/>
<path fill-rule="evenodd" clip-rule="evenodd" d="M267.711 12.5137C267.717 12.5539 267.847 12.5401 267.857 12.5363C267.887 12.5238 268.071 12.8162 267.91 12.5024C267.91 12.5024 267.681 12.2765 267.711 12.5137Z" fill="white"/>
<path fill-rule="evenodd" clip-rule="evenodd" d="M260.212 25.4578C260.212 25.7603 260.406 25.488 260.287 25.4578H260.277C260.202 25.4578 260.209 25.188 260.212 25.4578Z" fill="white"/>
<path fill-rule="evenodd" clip-rule="evenodd" d="M251.073 50.9617L251.109 50.9253C251.109 50.9253 251.06 50.9492 251.073 50.9617ZM250.947 50.8362L250.983 50.7998C250.983 50.7998 250.933 50.8287 250.947 50.84V50.8362Z" fill="white"/>
<path fill-rule="evenodd" clip-rule="evenodd" d="M257.077 33.1517C257.09 33.1649 257.115 33.095 257.115 33.1135C257.115 33.1319 257.064 33.1398 257.077 33.1517Z" fill="white"/>
<path fill-rule="evenodd" clip-rule="evenodd" d="M269.458 19.5687C269.47 19.5819 269.495 19.512 269.495 19.5305C269.495 19.5489 269.445 19.5568 269.458 19.5687Z" fill="white"/>
<path fill-rule="evenodd" clip-rule="evenodd" d="M251.694 54.126C251.707 54.1391 251.732 54.0706 251.732 54.0877C251.732 54.1049 251.682 54.1141 251.694 54.126Z" fill="white"/>
<path fill-rule="evenodd" clip-rule="evenodd" d="M265.651 15.3276C265.664 15.3394 265.689 15.2708 265.689 15.2893C265.689 15.3078 265.638 15.3144 265.651 15.3276Z" fill="white"/>
<path fill-rule="evenodd" clip-rule="evenodd" d="M257.742 19.3869L257.779 19.3486C257.779 19.3486 257.73 19.375 257.742 19.3869Z" fill="white"/>
<path fill-rule="evenodd" clip-rule="evenodd" d="M237.928 36.6623L237.966 36.624C237.966 36.624 237.915 36.6491 237.928 36.6623Z" fill="white"/>
<path fill-rule="evenodd" clip-rule="evenodd" d="M234.966 29.3712L235.004 29.333C235.004 29.333 234.953 29.3594 234.966 29.3712Z" fill="white"/>
<path fill-rule="evenodd" clip-rule="evenodd" d="M251.277 44.63L251.316 44.5918C251.316 44.5918 251.266 44.6168 251.277 44.63Z" fill="white"/>
<path d="M313.883 140.148L314.763 140.023C314.947 139.982 315.126 139.925 315.299 139.852C315.431 139.806 315.541 139.714 315.608 139.592C315.677 139.468 315.703 139.324 315.681 139.184C315.673 139.09 315.643 138.999 315.595 138.917C315.546 138.836 315.48 138.767 315.401 138.715C315.245 138.618 314.978 138.598 314.6 138.653L313.685 138.786L313.883 140.148ZM312.373 144.447L311.391 137.732L314.858 137.23C315.5 137.136 315.999 137.12 316.355 137.181C316.706 137.238 317.027 137.411 317.267 137.673C317.53 137.962 317.694 138.326 317.738 138.713C317.799 139.038 317.77 139.374 317.654 139.683C317.538 139.993 317.34 140.265 317.08 140.471C316.871 140.632 316.638 140.759 316.389 140.847C316.589 140.877 316.784 140.934 316.968 141.017C317.107 141.104 317.235 141.206 317.352 141.321C317.481 141.435 317.599 141.561 317.704 141.697L318.995 143.497L316.643 143.839L315.233 141.948C315.115 141.764 314.96 141.607 314.778 141.485C314.614 141.404 314.429 141.376 314.247 141.405L314.064 141.431L314.463 144.156L312.373 144.447ZM306.747 142.844L305.614 140.559L305.272 143.087L306.747 142.844ZM307.419 144.225L305.056 144.611L304.912 145.769L302.793 146.116L304.216 139.007L306.481 138.637L310.105 144.922L307.935 145.276L307.419 144.225ZM296.158 142.011L296.823 145.651L297.326 145.559C297.76 145.48 298.058 145.379 298.223 145.249C298.4 145.101 298.519 144.897 298.562 144.671C298.621 144.414 298.602 144.018 298.505 143.483C298.379 142.775 298.173 142.313 297.895 142.094C297.617 141.874 297.208 141.814 296.672 141.91L296.158 142.011ZM293.814 140.872L296.887 140.315C297.384 140.207 297.897 140.2 298.397 140.295C298.787 140.385 299.148 140.57 299.449 140.833C299.754 141.106 300.001 141.437 300.173 141.808C300.362 142.21 300.496 142.635 300.574 143.072C300.704 143.786 300.723 144.354 300.631 144.776C300.549 145.179 300.377 145.559 300.128 145.887C299.912 146.185 299.626 146.425 299.295 146.588C298.914 146.774 298.511 146.91 298.095 146.993L295.022 147.549L293.814 140.872ZM289.389 146.019L288.171 143.773L287.919 146.313L289.389 146.019ZM290.108 147.372L287.76 147.84L287.657 149.004L285.551 149.423L286.725 142.268L288.972 141.82L292.814 147.971L290.656 148.401L290.108 147.372ZM276.473 144.417L282.308 143.255L282.574 144.584L279.614 149.229L283.491 148.455L283.778 149.886L277.449 151.142L277.172 149.761L280.099 145.17L276.759 145.836L276.473 144.417ZM267.649 150.617L266.391 148.394L266.182 150.936L267.649 150.617ZM268.393 151.957L266.054 152.467L265.97 153.632L263.873 154.088L264.92 146.914L267.16 146.427L271.108 152.514L268.959 152.982L268.393 151.957ZM258.252 148.517L260.302 148.034L261.154 151.624C261.332 152.377 261.401 152.966 261.359 153.392C261.308 153.842 261.107 154.261 260.789 154.583C260.447 154.952 259.961 155.21 259.33 155.359C258.659 155.517 258.12 155.549 257.712 155.455C257.314 155.369 256.951 155.163 256.674 154.865C256.366 154.519 256.14 154.109 256.015 153.663L257.902 152.937C257.949 153.156 258.027 153.367 258.134 153.564C258.211 153.69 258.324 153.789 258.458 153.849C258.614 153.895 258.78 153.883 258.927 153.815C259.074 153.748 259.191 153.63 259.258 153.483C259.323 153.288 259.309 152.989 259.213 152.588L258.252 148.517ZM246.306 151.393L248.217 150.942L251.576 154.007L250.71 150.353L252.639 149.899L254.203 156.503L252.275 156.958L248.936 153.917L249.795 157.542L247.871 157.996L246.306 151.393ZM242.164 156.783L240.831 154.605L240.705 157.153L242.164 156.783ZM242.954 158.097L240.634 158.687L240.592 159.854L238.511 160.383L239.307 153.178L241.528 152.613L245.681 158.558L243.549 159.1L242.954 158.097ZM232.455 154.61L231.16 154.939L229.835 153.909L230.946 153.627L231.668 154.174L232.046 153.348L233.166 153.063L232.455 154.61ZM234.199 158.732L236.121 158.817C236.137 159.295 236.051 159.77 235.87 160.212C235.703 160.606 235.439 160.952 235.102 161.216C234.687 161.52 234.212 161.734 233.709 161.844C232.993 162.026 232.38 162.071 231.875 161.981C231.32 161.863 230.813 161.585 230.416 161.181C229.954 160.742 229.617 160.115 229.41 159.298C229.131 158.21 229.207 157.3 229.639 156.568C230.07 155.836 230.815 155.334 231.876 155.062C232.706 154.851 233.402 154.851 233.962 155.062C234.522 155.273 235.007 155.697 235.415 156.336L233.719 157.193C233.637 157.048 233.532 156.916 233.408 156.803C233.262 156.681 233.09 156.595 232.905 156.552C232.711 156.511 232.51 156.516 232.319 156.567C232.106 156.612 231.91 156.712 231.749 156.857C231.587 157.002 231.467 157.187 231.4 157.393C231.284 157.716 231.302 158.172 231.452 158.761C231.639 159.491 231.878 159.961 232.168 160.177C232.316 160.283 232.487 160.354 232.668 160.382C232.848 160.411 233.033 160.398 233.207 160.344C233.597 160.245 233.864 160.061 234.007 159.792C234.164 159.463 234.231 159.099 234.204 158.736L234.199 158.732ZM222.81 160.482L223.665 160.248C223.843 160.186 224.014 160.107 224.178 160.014C224.302 159.952 224.399 159.846 224.451 159.717C224.509 159.563 224.51 159.392 224.452 159.237C224.395 159.082 224.284 158.953 224.139 158.873C223.972 158.795 223.706 158.807 223.336 158.909L222.445 159.151L222.81 160.482ZM221.841 164.932L220.052 158.388L223.43 157.467C224.057 157.294 224.55 157.217 224.911 157.236C225.266 157.25 225.606 157.383 225.876 157.612C226.172 157.868 226.38 158.21 226.471 158.589C226.57 158.904 226.582 159.239 226.505 159.56C226.427 159.88 226.264 160.174 226.032 160.409C225.843 160.592 225.627 160.744 225.391 160.861C225.759 160.844 226.12 160.971 226.397 161.214C226.54 161.31 226.673 161.42 226.794 161.543L228.295 163.174L226.003 163.802L224.368 162.096C224.229 161.929 224.058 161.792 223.864 161.692C223.691 161.632 223.503 161.626 223.327 161.677L223.148 161.726L223.877 164.382L221.841 164.932ZM211.388 160.96L217.521 159.171L217.993 160.781L215.934 161.381L217.373 166.285L215.359 166.874L213.921 161.969L211.864 162.569L211.388 160.96ZM203.484 167.764L202.074 165.63L202.044 168.182L203.484 167.764ZM204.319 169.049L202.02 169.719V170.887L199.959 171.488L200.504 164.259L202.704 163.618L207.067 169.414L204.956 170.031L204.319 169.049ZM191.059 167.215L193.073 166.587L194.598 171.47L197.729 170.498L198.233 172.093L193.088 173.702L191.059 167.215ZM184.76 172.888C184.975 173.539 185.251 173.966 185.587 174.172C185.756 174.272 185.946 174.334 186.142 174.351C186.338 174.368 186.535 174.341 186.719 174.271C187.147 174.129 187.434 173.88 187.576 173.525C187.718 173.17 187.672 172.63 187.433 171.91C187.232 171.302 186.961 170.905 186.623 170.701C186.452 170.603 186.262 170.545 186.066 170.529C185.87 170.514 185.674 170.542 185.49 170.612C185.305 170.666 185.134 170.761 184.99 170.89C184.847 171.019 184.735 171.179 184.662 171.357C184.506 171.721 184.539 172.231 184.76 172.888ZM182.76 173.538C182.411 172.487 182.433 171.571 182.826 170.791C183.22 170.011 183.941 169.449 184.989 169.103C186.064 168.748 186.987 168.763 187.758 169.147C188.528 169.531 189.086 170.242 189.431 171.281C189.683 172.034 189.76 172.693 189.664 173.259C189.574 173.816 189.321 174.334 188.937 174.748C188.544 175.175 187.992 175.501 187.274 175.742C186.557 175.983 185.905 176.066 185.35 175.993C184.782 175.911 184.251 175.661 183.825 175.276C183.358 174.871 183.002 174.292 182.756 173.538H182.76ZM173.149 173.333L175.133 172.64L175.982 175.06L177.214 171.913L179.85 170.992L178.359 174.224L182.203 177.362L179.76 178.216L177.482 176.055L176.833 177.48L177.382 179.045L175.399 179.737L173.149 173.333ZM168.249 174.621L166.991 175.062L165.58 174.152L166.662 173.775L167.431 174.257L167.729 173.402L168.821 173.026L168.249 174.621ZM166.343 180.533L168.189 179.756C168.297 180 168.468 180.211 168.684 180.369C168.834 180.461 169.003 180.517 169.178 180.531C169.353 180.545 169.529 180.517 169.691 180.45C169.931 180.384 170.139 180.232 170.276 180.024C170.327 179.944 170.36 179.854 170.371 179.761C170.383 179.667 170.373 179.572 170.343 179.483C170.311 179.396 170.261 179.317 170.196 179.252C170.131 179.187 170.052 179.137 169.965 179.106C169.773 179.027 169.391 179.021 168.819 179.09C167.88 179.199 167.167 179.157 166.68 178.964C166.446 178.876 166.236 178.737 166.064 178.557C165.892 178.377 165.762 178.16 165.686 177.924C165.57 177.59 165.555 177.231 165.644 176.889C165.749 176.505 165.965 176.16 166.265 175.898C166.591 175.596 167.088 175.329 167.756 175.096C168.576 174.809 169.255 174.743 169.793 174.896C170.331 175.049 170.757 175.444 171.071 176.08L169.239 176.843C169.192 176.726 169.121 176.619 169.031 176.531C168.941 176.442 168.834 176.373 168.716 176.327C168.598 176.281 168.472 176.261 168.345 176.266C168.219 176.271 168.095 176.302 167.981 176.357C167.79 176.408 167.624 176.524 167.51 176.686C167.47 176.747 167.445 176.816 167.437 176.889C167.428 176.961 167.437 177.034 167.461 177.103C167.482 177.156 167.514 177.203 167.555 177.242C167.596 177.281 167.646 177.31 167.7 177.327C167.826 177.379 168.078 177.38 168.455 177.327C169.387 177.21 170.074 177.182 170.516 177.243C170.905 177.281 171.276 177.428 171.585 177.666C171.857 177.893 172.061 178.191 172.175 178.526C172.319 178.93 172.339 179.367 172.231 179.781C172.121 180.214 171.885 180.605 171.553 180.904C171.13 181.269 170.635 181.544 170.101 181.712C169.011 182.094 168.181 182.148 167.612 181.875C167.038 181.597 166.585 181.12 166.339 180.533H166.343Z" fill="white"/>
</g>
<defs>
<clipPath id="clip0_257_1397">
<rect width="319" height="232" fill="white"/>
</clipPath>
</defs>
</svg>
