<svg width="980" height="610" viewBox="0 0 980 610" fill="none" xmlns="http://www.w3.org/2000/svg">
<g opacity="0.03">
<path d="M760.34 265.837C759.82 266.933 758.892 267.804 757.691 268.323C692.141 296.239 629.711 323.217 569.346 349.296C427.504 410.55 315.502 458.938 272.065 472.177C264.105 474.602 256.499 476.98 249.189 479.282C216.911 489.409 188.972 498.135 159.563 501.212C116.026 505.723 82.5513 498.521 57.2708 479.094C25.0943 454.345 7.78496 411.054 4.41168 346.668C4.34158 345.112 4.97046 343.677 6.1617 342.674C7.35293 341.672 9.01029 341.183 10.7737 341.314C12.5388 341.459 14.2613 342.213 15.5653 343.413C16.8692 344.612 17.6487 346.16 17.7337 347.718C20.8822 407.449 36.8549 448.783 65.2058 470.568C87.0489 487.356 116.882 493.494 156.278 489.416C184.333 486.488 210.353 478.336 243.285 468.016C250.624 465.715 258.251 463.323 266.244 460.89C309.016 447.862 420.743 399.596 562.188 338.476C619.766 313.601 685.002 285.441 750.604 257.477C751.805 256.967 753.21 256.832 754.618 257.089C756.026 257.346 757.366 257.983 758.446 258.908C759.526 259.834 760.291 261.001 760.632 262.244C760.973 263.486 760.872 264.74 760.345 265.827L760.34 265.837Z" fill="url(#paint0_linear_257_1214)"/>
<path d="M751.263 110.794C750.643 112.097 749.618 113.183 748.292 113.941L612.947 189.296C610.942 190.335 608.45 190.58 605.999 189.979C603.548 189.379 601.331 187.981 599.82 186.081C598.308 184.181 597.621 181.93 597.904 179.805C598.188 177.681 599.419 175.85 601.336 174.702L736.615 99.363C738.271 98.465 740.289 98.114 742.362 98.3633C744.435 98.6126 746.45 99.4486 748.1 100.744C749.75 102.04 750.945 103.724 751.504 105.541C752.063 107.358 751.956 109.209 751.197 110.811L751.263 110.794Z" fill="url(#paint1_linear_257_1214)"/>
<path d="M773.782 171.865C772.481 174.546 770.282 176.735 767.445 178.173C731 196.864 741.175 190.744 696.987 213.515C616.967 254.692 534.221 297.268 487.905 320.418C469.108 329.82 449.861 339.762 429.479 350.29C289.229 422.768 144.21 497.71 61.8804 442.645C57.7479 439.876 54.816 435.904 53.7284 431.6C52.6408 427.296 53.4864 423.013 56.0795 419.691C57.3647 418.045 59.0411 416.686 61.0128 415.69C62.9845 414.694 65.2128 414.081 67.5707 413.886C69.9285 413.691 72.3695 413.919 74.7544 414.555C77.1393 415.191 79.4213 416.224 81.4701 417.594C142.791 458.592 289.743 382.606 407.873 321.566C428.358 310.944 447.692 300.971 466.673 291.489C512.829 268.43 595.483 225.894 675.442 184.724C719.64 161.935 709.474 168.035 745.987 149.352C749.229 147.692 753.141 147.09 757.132 147.638C761.124 148.186 764.979 149.853 768.117 152.389C771.255 154.924 773.507 158.191 774.532 161.697C775.557 165.203 775.301 168.758 773.801 171.826L773.782 171.865Z" fill="url(#paint2_linear_257_1214)"/>
<path d="M556.671 218.655C556.108 219.813 555.179 220.773 553.981 221.432C542.032 228.003 260.194 382.571 165.525 406.907C124.057 417.577 89.0363 413.227 61.5179 394.021C0.55172 351.495 -0.0103279 251.84 0.000114811 247.619C0.000787728 246.655 0.218227 245.726 0.639946 244.886C1.06167 244.045 1.67945 243.31 2.45783 242.722C3.23621 242.133 4.15992 241.703 5.17613 241.457C6.19233 241.21 7.28106 241.151 8.37994 241.284C9.47915 241.414 10.5675 241.733 11.5829 242.222C12.5984 242.711 13.521 243.362 14.2979 244.135C15.0749 244.909 15.6911 245.792 16.1114 246.733C16.5316 247.673 16.7475 248.654 16.747 249.618C16.7435 250.571 17.3197 345.612 70.7731 382.87C93.3446 398.606 122.986 401.884 158.928 392.627C251.713 368.762 540.961 210.088 543.851 208.528C545.309 207.726 547.093 207.409 548.926 207.626C550.76 207.844 552.542 208.584 554 209.732C555.458 210.88 556.509 212.373 556.994 213.982C557.478 215.591 557.368 217.225 556.681 218.635L556.671 218.655Z" fill="url(#paint3_linear_257_1214)"/>
<path d="M812.028 505.888C811.861 506.235 811.611 506.538 811.293 506.78C810.975 507.022 810.595 507.197 810.177 507.294C637.763 547.721 420.31 595.567 356.901 604.591C212.847 625.075 92.6133 586.818 61.7426 499.367C61.4701 498.594 61.5436 497.796 61.9472 497.15C62.3508 496.504 63.0514 496.061 63.8958 495.919C64.3148 495.849 64.7564 495.856 65.1954 495.939C65.6344 496.022 66.0621 496.18 66.4538 496.403C66.8456 496.625 67.1939 496.909 67.4785 497.238C67.7632 497.566 67.9787 497.933 68.1126 498.317C97.7759 582.451 214.579 618.706 354.964 598.721C418.198 589.733 635.404 541.95 807.675 501.551C808.083 501.455 808.519 501.434 808.958 501.489C809.398 501.545 809.833 501.676 810.237 501.875C810.642 502.073 811.008 502.336 811.316 502.648C811.624 502.96 811.867 503.315 812.031 503.692C812.35 504.435 812.349 505.221 812.028 505.888Z" fill="url(#paint4_linear_257_1214)"/>
<path d="M975.947 538.736C975.132 540.394 973.895 541.828 972.321 542.939C970.747 544.05 968.872 544.812 966.825 545.174L632.945 604.978C631.06 605.352 629.059 605.377 627.057 605.05C625.056 604.723 623.095 604.052 621.29 603.076C619.484 602.1 617.87 600.838 616.542 599.364C615.214 597.891 614.199 596.235 613.556 594.494C612.913 592.753 612.654 590.962 612.796 589.225C612.938 587.489 613.477 585.841 614.382 584.38C615.287 582.918 616.539 581.672 618.066 580.713C619.593 579.755 621.363 579.104 623.273 578.798L957.139 519.023C959.865 518.539 962.798 518.78 965.591 519.718C968.384 520.656 970.921 522.251 972.901 524.317C974.882 526.382 976.224 528.83 976.77 531.373C977.315 533.916 977.041 536.447 975.98 538.668L975.947 538.736Z" fill="url(#paint5_linear_257_1214)"/>
<path d="M978.534 355.997C976.662 359.861 973.109 362.759 968.579 364.119C922.643 377.969 872.943 393.192 820.326 409.295C668.482 455.784 496.373 508.51 349.113 548.125C276.765 567.589 213.526 572.358 166.317 561.965C163.695 561.388 161.159 560.371 158.853 558.971C156.547 557.571 154.517 555.817 152.879 553.808C151.241 551.799 150.026 549.575 149.305 547.262C148.583 544.95 148.369 542.595 148.674 540.331C148.981 538.068 149.8 535.941 151.086 534.072C152.372 532.202 154.1 530.627 156.17 529.436C158.24 528.245 160.612 527.461 163.15 527.13C165.689 526.799 168.345 526.926 170.966 527.505C210.516 536.215 268.027 531.414 332.892 513.956C479.481 474.538 651.254 421.94 802.816 375.497C855.471 359.376 905.22 344.14 951.233 330.279C954.886 329.174 958.983 329.127 962.987 330.143C966.99 331.16 970.713 333.192 973.666 335.974C976.619 338.756 978.664 342.157 979.533 345.73C980.401 349.304 980.053 352.883 978.534 355.997Z" fill="url(#paint6_linear_257_1214)"/>
<path d="M534.99 100.99C534.319 102.368 533.321 103.573 532.055 104.536C519.366 114.195 505.935 124.52 491.961 135.281C378.815 222.315 238.002 330.646 147.502 349.727C144.174 350.427 140.488 349.879 137.253 348.206C134.018 346.533 131.501 343.87 130.253 340.804C129.634 339.286 129.347 337.713 129.406 336.177C129.466 334.641 129.872 333.172 130.601 331.853C131.33 330.534 132.367 329.391 133.654 328.489C134.941 327.588 136.452 326.946 138.1 326.601C223.105 308.697 367.477 197.605 472.906 116.49C486.913 105.721 500.37 95.3727 513.09 85.6795C515.276 84.0245 518.148 83.1714 521.221 83.2644C524.293 83.3574 527.378 84.3907 529.954 86.1899C532.53 87.989 534.438 90.4435 535.356 93.1385C536.275 95.8335 536.147 98.6035 534.995 100.981L534.99 100.99Z" fill="url(#paint7_linear_257_1214)"/>
<path d="M540.932 154.506C540.727 154.931 540.395 155.288 539.967 155.543C537.213 157.239 263.056 325.249 187.519 361.058C148.214 379.71 114.067 383.236 86.0877 371.573C51.6815 357.233 39.7971 325.364 39.3118 324.024C39.0334 323.252 39.0999 322.454 39.4968 321.805C39.8937 321.155 40.5887 320.707 41.4299 320.559C42.2725 320.414 43.1911 320.581 43.9848 321.023C44.7785 321.465 45.3828 322.146 45.6656 322.918C45.7771 323.221 57.0629 353.303 88.3107 366.295C114.185 377.047 146.308 373.509 183.772 355.742C259.041 320.07 532.921 152.215 535.676 150.519C536.251 150.169 536.968 150.016 537.714 150.085C538.461 150.153 539.193 150.438 539.796 150.896C540.399 151.353 540.838 151.956 541.044 152.61C541.25 153.264 541.211 153.931 540.932 154.506Z" fill="url(#paint8_linear_257_1214)"/>
<path d="M631.549 386.735C630.701 388.505 629.143 389.878 627.138 390.622C517.484 431.581 387.287 477.93 385.979 478.399C383.667 478.975 381.078 478.734 378.714 477.723C376.351 476.711 374.382 475.002 373.191 472.926C372 470.851 371.672 468.558 372.271 466.494C372.869 464.429 374.351 462.741 376.429 461.757C377.732 461.298 507.806 414.998 617.307 374.086C619.126 373.435 621.204 373.326 623.26 373.773C625.317 374.221 627.252 375.203 628.804 376.588C630.355 377.972 631.449 379.692 631.937 381.513C632.424 383.335 632.282 385.172 631.53 386.774L631.549 386.735Z" fill="url(#paint9_linear_257_1214)"/>
<path d="M521.535 8.63132C521.225 9.32254 520.748 9.93041 520.134 10.4171C518.062 12.1012 311.224 179.203 232.672 248.273C151.684 319.452 93.9728 317.949 92.0259 317.484C90.2657 317.06 88.675 316.053 87.6034 314.683C86.5319 313.312 86.0673 311.691 86.3119 310.176C86.5571 308.679 87.4755 307.407 88.8694 306.634C90.2632 305.861 92.021 305.649 93.7646 306.042C94.648 306.209 147.822 305.055 222.666 239.345C301.37 170.168 508.366 2.94855 510.478 1.21175C511.553 0.39752 512.96 -0.0291601 514.47 0.00154901C515.979 0.0322582 517.501 0.518508 518.786 1.38075C520.071 2.243 521.043 3.43004 521.542 4.74735C522.042 6.06466 522.039 7.4341 521.535 8.63132Z" fill="url(#paint10_linear_257_1214)"/>
</g>
<defs>
<linearGradient id="paint0_linear_257_1214" x1="1617.3" y1="-399435" x2="1.04024e+06" y2="-543550" gradientUnits="userSpaceOnUse">
<stop stop-color="white"/>
<stop offset="1"/>
</linearGradient>
<linearGradient id="paint1_linear_257_1214" x1="1617.3" y1="-399435" x2="1.04024e+06" y2="-543550" gradientUnits="userSpaceOnUse">
<stop stop-color="white"/>
<stop offset="1"/>
</linearGradient>
<linearGradient id="paint2_linear_257_1214" x1="1617.3" y1="-399435" x2="1.04024e+06" y2="-543550" gradientUnits="userSpaceOnUse">
<stop stop-color="white"/>
<stop offset="1"/>
</linearGradient>
<linearGradient id="paint3_linear_257_1214" x1="1617.3" y1="-399435" x2="1.04024e+06" y2="-543550" gradientUnits="userSpaceOnUse">
<stop stop-color="white"/>
<stop offset="1"/>
</linearGradient>
<linearGradient id="paint4_linear_257_1214" x1="1617.3" y1="-399435" x2="1.04024e+06" y2="-543550" gradientUnits="userSpaceOnUse">
<stop stop-color="white"/>
<stop offset="1"/>
</linearGradient>
<linearGradient id="paint5_linear_257_1214" x1="1617.3" y1="-399435" x2="1.04024e+06" y2="-543550" gradientUnits="userSpaceOnUse">
<stop stop-color="white"/>
<stop offset="1"/>
</linearGradient>
<linearGradient id="paint6_linear_257_1214" x1="1617.3" y1="-399435" x2="1.04024e+06" y2="-543550" gradientUnits="userSpaceOnUse">
<stop stop-color="white"/>
<stop offset="1"/>
</linearGradient>
<linearGradient id="paint7_linear_257_1214" x1="1617.3" y1="-399435" x2="1.04024e+06" y2="-543550" gradientUnits="userSpaceOnUse">
<stop stop-color="white"/>
<stop offset="1"/>
</linearGradient>
<linearGradient id="paint8_linear_257_1214" x1="1617.3" y1="-399435" x2="1.04024e+06" y2="-543550" gradientUnits="userSpaceOnUse">
<stop stop-color="white"/>
<stop offset="1"/>
</linearGradient>
<linearGradient id="paint9_linear_257_1214" x1="1617.3" y1="-399435" x2="1.04024e+06" y2="-543550" gradientUnits="userSpaceOnUse">
<stop stop-color="white"/>
<stop offset="1"/>
</linearGradient>
<linearGradient id="paint10_linear_257_1214" x1="1617.3" y1="-399435" x2="1.04024e+06" y2="-543550" gradientUnits="userSpaceOnUse">
<stop stop-color="white"/>
<stop offset="1"/>
</linearGradient>
</defs>
</svg>
