<svg width="13" height="14" viewBox="0 0 13 14" fill="none" xmlns="http://www.w3.org/2000/svg">
<path d="M6.50001 6.10352e-05C4.95071 0.00178127 3.46539 0.581796 2.36987 1.61287C1.27435 2.64395 0.658084 4.0419 0.656256 5.50006C0.654401 6.69167 1.06796 7.85095 1.83351 8.80006C1.83351 8.80006 1.99288 8.99756 2.01891 9.02606L6.50001 14.0001L10.9832 9.02356C11.0066 8.99706 11.1665 8.80006 11.1665 8.80006L11.167 8.79856C11.9322 7.84987 12.3456 6.69113 12.3438 5.50006C12.3419 4.0419 11.7257 2.64395 10.6301 1.61287C9.53462 0.581796 8.0493 0.00178127 6.50001 6.10352e-05ZM6.50001 7.50006C6.07972 7.50006 5.66887 7.38276 5.31942 7.163C4.96996 6.94324 4.6976 6.63088 4.53676 6.26543C4.37593 5.89998 4.33384 5.49784 4.41584 5.10988C4.49783 4.72192 4.70022 4.36555 4.9974 4.08585C5.29459 3.80614 5.67323 3.61566 6.08544 3.53849C6.49765 3.46132 6.92491 3.50093 7.31321 3.6523C7.7015 3.80368 8.03338 4.06002 8.26688 4.38892C8.50038 4.71782 8.62501 5.1045 8.62501 5.50006C8.6243 6.03029 8.40019 6.53861 8.00183 6.91354C7.60347 7.28847 7.06337 7.4994 6.50001 7.50006Z" fill="white"/>
</svg>
