<svg id="Layer_1" data-name="Layer 1" xmlns="http://www.w3.org/2000/svg" viewBox="0 0 425.2 566.93"><defs><style>.cls-1{fill:#fff;}.cls-2{fill:#f2662e;}</style></defs><title>Night Run 24 Logo</title><path class="cls-1" d="M168.05,188.18l-14.4,20.23h11.11L163,219.13H137.78l1.64-9.53,14.29-20.18h-9.53L146,179h23.64Z"/><path class="cls-1" d="M186.07,213.23h-7.19l-2.1,5.9H164.42L181.31,179H196l2.1,40.14h-12Zm-4.36-9h4.53V191H186Z"/><path class="cls-1" d="M200.93,219.13l7-40.14h11.85a19.94,19.94,0,0,1,7.28,1.17,12.23,12.23,0,0,1,4.82,3.25,12.76,12.76,0,0,1,2.66,5,23.62,23.62,0,0,1,.82,6.43A40.8,40.8,0,0,1,235,200a28.87,28.87,0,0,1-1.21,5.41,26,26,0,0,1-2.36,5.19,16.75,16.75,0,0,1-3.77,4.39,17.71,17.71,0,0,1-5.49,3,22.28,22.28,0,0,1-7.46,1.14ZM223.15,196a17.85,17.85,0,0,0-.17-2.44,7.11,7.11,0,0,0-.63-2.12,3.75,3.75,0,0,0-1.27-1.51,3.63,3.63,0,0,0-2.07-.56h-1l-3.35,19.38h1.08a4.9,4.9,0,0,0,3.51-1.33,9.76,9.76,0,0,0,2.27-3.29,17.72,17.72,0,0,0,1.22-4.16A25.15,25.15,0,0,0,223.15,196Z"/><path class="cls-1" d="M252.91,213.23h-7.2l-2.1,5.9H231.25L248.15,179h14.68l2.09,40.14h-12Zm-4.37-9h4.54V191h-.23Z"/><path class="cls-1" d="M300.64,190.27a14.59,14.59,0,0,1-1.73,7.37A10.14,10.14,0,0,1,294,202l3.8,17.12H285.27l-2.15-14.63h-1.47l-2.56,14.63H267.76l7-40.14h13.89q5.83,0,8.93,2.84T300.64,190.27Zm-12,1.53a2.51,2.51,0,0,0-.94-2.32,3.44,3.44,0,0,0-1.79-.57h-1.58l-1.31,7.43h1.25a4.86,4.86,0,0,0,3-1A4.16,4.16,0,0,0,288.68,191.8Z"/><path class="cls-1" d="M175.76,268.22H163.4l-3.34-19.67h-.17l-3,19.67H146.34l7-40.14H166l3.18,20.24h.22l3.18-20.24h10.2Z"/><path class="cls-1" d="M193.79,268.22h-12l7-40.14h12Z"/><path class="cls-1" d="M225.53,240.61a7.57,7.57,0,0,0-1.9-1.56,5.67,5.67,0,0,0-2.81-.59,5.58,5.58,0,0,0-3.65,1.27,10.23,10.23,0,0,0-2.58,3.23,17.18,17.18,0,0,0-1.53,4.31,21,21,0,0,0-.51,4.45,11.56,11.56,0,0,0,.25,2.47,6.07,6.07,0,0,0,.82,2,4.13,4.13,0,0,0,1.51,1.36,4.84,4.84,0,0,0,2.35.51,6.58,6.58,0,0,0,1.19-.11,2.46,2.46,0,0,0,1-.4l.74-4h-4.54l1.82-10.37h15l-4,22.73a19.42,19.42,0,0,1-5.45,2.52,23.82,23.82,0,0,1-6.74.88,17.73,17.73,0,0,1-6.75-1.19,12.75,12.75,0,0,1-4.79-3.35,13.92,13.92,0,0,1-2.83-5.13,21.61,21.61,0,0,1-.94-6.49,33.19,33.19,0,0,1,1.48-10,27.74,27.74,0,0,1,4.16-8.36,20.88,20.88,0,0,1,6.41-5.76,16.14,16.14,0,0,1,8.13-2.12,20.4,20.4,0,0,1,4.23.4,16.22,16.22,0,0,1,3.34,1,11.28,11.28,0,0,1,2.49,1.51,9.82,9.82,0,0,1,1.73,1.75Z"/><path class="cls-1" d="M263.11,268.22H251.26L254,252.68H248l-2.72,15.54H233.52l7-40.14h11.74L249.79,242h6l2.38-13.95h11.9Z"/><path class="cls-1" d="M297.23,238.17h-7.14l-5.21,30.05H273.14l5.27-30.05h-7.14L273,228.08h26Z"/><path class="cls-1" d="M202,288.45a14.59,14.59,0,0,1-1.72,7.37,10.19,10.19,0,0,1-4.91,4.37l3.8,17.11H186.61l-2.15-14.62H183l-2.55,14.62H169.1l7-40.13H190c3.89,0,6.87.95,8.93,2.83S202,284.71,202,288.45ZM190,290a2.51,2.51,0,0,0-.93-2.32,3.44,3.44,0,0,0-1.79-.57h-1.58l-1.31,7.43h1.25a4.86,4.86,0,0,0,3-1A4.17,4.17,0,0,0,190,290Z"/><path class="cls-1" d="M233.15,301.66a44,44,0,0,1-1.67,6.63,16.46,16.46,0,0,1-2.92,5.3,13.18,13.18,0,0,1-4.73,3.54,16.85,16.85,0,0,1-7,1.31,17.19,17.19,0,0,1-5.87-.91,11.72,11.72,0,0,1-4.22-2.52,10.41,10.41,0,0,1-2.58-3.86,13.18,13.18,0,0,1-.88-4.9c0-.76,0-1.52.11-2.29s.19-1.56.34-2.36L208,277.17h12l-4.08,23.58c-.11.64-.21,1.24-.28,1.79a10.39,10.39,0,0,0-.11,1.5,3.76,3.76,0,0,0,.53,2.15,1.89,1.89,0,0,0,1.68.8,2.62,2.62,0,0,0,2.63-1.67,22,22,0,0,0,1.22-4.57l4.08-23.58h11.85Z"/><path class="cls-1" d="M265,317.3H252.59l-3.34-19.67h-.17l-3,19.67H235.53l7-40.13h12.64l3.18,20.24h.23l3.17-20.24h10.2Z"/><g id="T8pyQk.tif"><path class="cls-2" d="M173.31,333.26c-1.77.55-2.93-.13-3.75-1.74-3.05-6-6.29-12-9.18-18.06-3.25-6.83-6.19-13.79-9.27-20.69-.42-1-.9-1.9-1.25-2.88-.67-1.9-1-2-2.74-1.14-1,.48-1,1.05-.54,1.93,3.13,5.85,6.28,11.69,9.33,17.59a54.36,54.36,0,0,1,2.44,6,7.51,7.51,0,0,1,.16,1.92l-.52.34c-.55-.5-1.29-.91-1.61-1.53-2.21-4.32-4.31-8.7-6.48-13-2-3.95-4-7.86-6.09-11.89l-2.29,1,2,3.79c3.51,6.81,7,13.62,10.5,20.46a8.33,8.33,0,0,1,.72,2.66c.05.37-.36.79-.56,1.19-.31-.24-.75-.42-.91-.74-1.08-2.14-2.1-4.31-3.15-6.46a8.41,8.41,0,0,0-.79-1c-.1,3.37,2.5,5.45,2.06,8.47a12.23,12.23,0,0,1-1.2-1.61,34.33,34.33,0,0,1-2-4.16c-.36-1-.8-1.1-1.64-.71-2.64,1.25-5.29,2.49-7.91,3.71L142,323.2c.59,1.16,1.22,1.35,2.44.55a41.55,41.55,0,0,1,5.4-2.76,8.12,8.12,0,0,1,1.88-.34l.3.45c-.38.45-.67,1-1.15,1.31-2.21,1.22-4.45,2.4-6.73,3.46-1.26.58-2.38.91-3.05-1.15a46.33,46.33,0,0,0-3.26-6.78c-.76-1.47-.12-2.3,1.12-3,1.54-.85,3.07-1.72,5-2.79l-3.31-.63v-.6l8.93-.45-9.58-19-15.5,5.92c1,1.79,1.72,3.24,2.5,4.68,3.57,6.65,7.26,13.25,10.69,20,2.79,5.47,5.3,11.09,7.88,16.67a8.93,8.93,0,0,1,.89,3.36c0,.76-.56,2.07-1.07,2.17a2.79,2.79,0,0,1-2.4-1c-1.68-2.86-3.22-5.81-4.63-8.81-2.76-5.9-5.49-11.81-8.06-17.8s-4.88-11.95-7.31-17.93a4.4,4.4,0,0,0-.4-.62l-4.26,1.81c1.34,2.71,2.61,5.33,3.93,7.92.75,1.48,1.66,2.87,2.39,4.36s.21,2.83-1.87,3.72c-3.16,1.36-6.38,2.59-9.59,3.85a20.86,20.86,0,0,1-3.48,1.15,1.91,1.91,0,0,1-1.64-.63c-1.65-3.23-3.19-6.51-4.72-9.8a8.05,8.05,0,0,1-.37-1.73l.64-.27,3.53,7a3.92,3.92,0,0,0,.22-4.3c-1.1-2.54,0-4.34,2.64-5.3a29,29,0,0,0,5.38-2.94,19.51,19.51,0,0,0,2.42-2.14l-.4-.54-18,7.31c.94,1.8,1.74,3.36,2.56,4.92,4.32,8.2,8.81,16.32,12.92,24.62,2.25,4.56,3.89,9.42,5.73,14.18a6.31,6.31,0,0,1,.4,2.88,2.22,2.22,0,0,1-1.23,1.55c-.39.14-1.33-.4-1.57-.87q-2.82-5.49-5.45-11.06c-1.87-3.94-3.68-7.91-5.48-11.89q-3.84-8.47-7.61-17c-.89-2-1.73-4.05-2.68-6.28l-17.64,7.2c.92,1.93,1.7,3.64,2.53,5.32,3.28,6.67,6.6,13.32,9.85,20,1.37,2.82,2.62,5.7,3.85,8.59.19.43-.07,1.06-.11,1.6-.47-.28-1.17-.44-1.38-.84-1.44-2.85-2.78-5.75-4.14-8.64q-3.29-6.92-6.54-13.83l-5.55-11.64-2.34,1c5.25,11.22,11.54,21.8,16.4,33.07L91,351c-3.66-4.93-6.11-10.61-8.91-16s-5.3-11.21-8-17l-3.54.58-.15-.42c1.23-.58,2.46-1.19,3.71-1.74,2.78-1.23,2.79-1.22,3.05-3.82,1.71,1.45,1.76,1.57,4.21.53,4.81-2,9.53-4.26,14.32-6.34q8.52-3.72,17.1-7.35c5.09-2.16,10.15-4.4,15.3-6.41,6.47-2.52,13-4.88,19.53-7.24,5.14-1.86,10.3-3.63,15.46-5.4a3.41,3.41,0,0,1,1.29.1c-.22.43-.32,1.11-.67,1.27-3.38,1.59-6.77,3.18-10.23,4.61-2.49,1-2.52,1.15-1.22,3.51,2.67,4.83,5.23,9.71,7.76,14.61,3.17,6.12,6.26,12.28,9.36,18.44,1.17,2.3,2.38,4.6,3.38,7a14.81,14.81,0,0,1,.57,3.44Zm-55.08-22.83c-.46-2.3-1-2.65-2.88-1.63-1.39.76-2.65,1.78-4.07,2.49-.53.27-1.34,0-2-.05a14.26,14.26,0,0,1,.56-1.41c.57-1.11.85-2.15-.39-3-1.74,1.47-1.93,2.9-.68,4.83a3.61,3.61,0,0,1-1.09,5.22l1.09,3c1.36-.8,3-1.23,3.48-2.22s-.3-2.56-.55-4.05c2.41,0,4.4-.82,4.86-3.64Zm4.71,2.79.53-.59L119.33,304l-3.82,3c3.57.61,5,2.9,6.32,5.44C122,312.74,122.56,312.94,122.94,313.22Zm-10.64-4.74a10.45,10.45,0,0,0,2.32-1.21,30.68,30.68,0,0,0,2.58-2.86l1.22-1.39c-1.79.64-3.37,1.23-5,1.77C111.45,305.46,111,306.56,112.3,308.48Zm3.4,4.75-2.51,1.42.73,2.5C115.62,316.36,117,315.49,115.7,313.23Zm5.43.61.11-.63-4.36-1.77,1.52,3.41Z"/><path class="cls-2" d="M173.28,333.29c3.33-1.42,6.64-2.91,10-4.22,3.95-1.53,7.9-3.14,12-4.3a75.6,75.6,0,0,1,20.94-3.2c6.13,0,12.16,1,17.29,4.89a28.9,28.9,0,0,1,9.79,12.4,8.21,8.21,0,0,0,.49.81l2.69-1.61c6-3.6,12.23-6.46,19.28-7.15s11.68,3.31,12.07,10.38c.36,6.46-1.47,12.47-3.84,18.34a164,164,0,0,1-19.63,34.55c-9.65,13.3-19.61,26.36-29.43,39.52a1.88,1.88,0,0,0-.47,1.15c1.66-.92,3.34-1.84,5-2.77C245.3,423.24,261.1,414.3,277,405.6c6.55-3.58,13.36-6.69,20.09-9.93.92-.45,2-1.55,3.14-.34a15.53,15.53,0,0,1-2.23,1.85q-33,18.13-66.11,36.22c-1.84,1-3.64,2.11-5.54,3-3.56,1.67-6.86,3.63-9,7.11a1,1,0,0,1-.37.41c-.7.31-1.42.58-2.13.86a5.47,5.47,0,0,1,.4-2.13q7.37-10.44,14.85-20.8c9.4-12.94,19.09-25.66,28.17-38.82,6.52-9.46,12.09-19.58,15.1-30.8a41.94,41.94,0,0,0,1.34-10.59c0-5.27-2.87-7.8-8.11-7.64s-10,2.09-14.59,4.42c-1.65.84-3.25,1.79-4.82,2.76-1.38.85-3.14,1.47-2.39,4.31-1.78-1.77-2.71-.87-3.73-.08a101.58,101.58,0,0,0-27.07,31.79c-.33.62-.71,1.22-1.07,1.83l-.68-.2a8.75,8.75,0,0,1,.47-2.6,125,125,0,0,1,6.47-11.82,89.86,89.86,0,0,1,21.13-22.15c1.45-1.08,1.68-2,.82-3.52-4.25-7.52-10.42-12.07-19.19-12.87a78.14,78.14,0,0,0-22.77,1.73,125.6,125.6,0,0,0-20.46,6.27c-4.41,1.72-8.82,3.43-13.25,5.07a22.3,22.3,0,0,1-3.16.73l-.23-.54a22.65,22.65,0,0,1,2-1.24c2.82-1.35,5.66-2.65,8.48-4,.26-.12.44-.42.66-.63Z"/><path class="cls-2" d="M203.15,214.57c2.56-29.69,10.5-57.54,28.72-81.94a7,7,0,0,0-7.89,3.26c-3,4.8-6.21,9.49-8.8,14.5a111.28,111.28,0,0,0-5.85,14.14A129.48,129.48,0,0,0,205.45,178c-1.43,6.1-2.64,12.25-3.78,18.42-.8,4.29-1.33,8.63-1.93,13-.3,2.14-.43,4.29-.71,6.42a16.82,16.82,0,0,1-.66,2.35l-.65,0a14,14,0,0,1-.6-3.45c.51-5.75.92-11.53,1.82-17.22,1.15-7.29,2.66-14.52,4.19-21.73.64-3.07,1.71-6,2.59-9.05a98.28,98.28,0,0,1,8.15-19.15,77.26,77.26,0,0,1,5.29-8.23c1.9-2.64,4-5.12,6.1-7.62a2.88,2.88,0,0,1,1.55-.88,47.72,47.72,0,0,1,4.73-.82c2.21-.25,2.61-.52,3.59-3l-9.49,1-.13-.79c1.57-.36,3.13-.81,4.72-1.05,1.82-.29,3.68-.35,5.5-.62a2.69,2.69,0,0,0,1.57-.81c3.71-4.43,7.34-8.91,11-13.34a51.19,51.19,0,0,1,4.14-4.45c5.33-5,10.8-9.86,16-14.95a26.59,26.59,0,0,0,4.09-5.8c.28-.49-.39-1.57-.66-2.37-1-3.14-.86-6.5,1.86-8.19.49,2.4,1,4.86,1.53,7.44,1.18-.39,1.9-.86,2.55-.78a3,3,0,0,1,2.05,1c.3.47,0,1.45-.31,2.1a2.25,2.25,0,0,1-1.27,1C274,87.78,272,91.4,270,95c-1.87,3.39-3.72,6.81-5.34,10.32-2.85,6.2-5.53,12.47-8.26,18.72-.81,1.86-1.5,3.78-2.3,5.64-.7,1.61-1.29,3.13.85,4.16.28.13.45.52.66.78a2.44,2.44,0,0,1-.33.33c-1,.49-2.07-1.82-3-.06a19,19,0,0,0-1.09,3.27c3.86,2.4,8.3,4,11.76,7.13l-.41.73-7.21-3.42c-2.33,4.23-4.63,8.23-6.75,12.32a91.29,91.29,0,0,0-4.3,9.39c-2.41,6.38-4.74,12.79-6.83,19.28a135.33,135.33,0,0,0-3.6,13.74c-1.23,5.83-2.19,11.71-3.14,17.59-.65,4-1.07,8-1.62,12.07a2,2,0,0,1-.8,1.2c-.74-10.2,1.44-20.11,3-30.06a134,134,0,0,1,8.31-29.41,133.3,133.3,0,0,1,14.21-27c-4.5-2.21-8.8-4.29-13.08-6.42-1.77-.88-3.52-1.79-5.22-2.78-.85-.49-1.47-.55-2,.32-2.58,4-5.35,8-7.69,12.14a123.14,123.14,0,0,0-6.1,12.62c-2,4.76-3.72,9.64-5.33,14.54-1.5,4.56-2.8,9.18-4,13.83s-2.09,9.11-3.05,13.68-1.8,9.17-2.72,13.75a7.85,7.85,0,0,1-.61,1.45ZM266.9,96.33a14.81,14.81,0,0,0-1.58,1.23c-3.45,3.49-6.9,7-10.29,10.53s-6.78,7.12-10.07,10.77a61.34,61.34,0,0,0-4.53,5.76,1.93,1.93,0,0,0,.3,1.85c3.27,1.67,6.61,3.19,10.23,4.89A213.12,213.12,0,0,1,266.9,96.33Zm-17.65,40.91c.37-1.38.74-2.55.94-3.74a1.39,1.39,0,0,0-.66-1.12q-5.26-2.65-10.61-5.16a1.37,1.37,0,0,0-1.23.28c-.76.93-1.39,2-2.11,3Z"/><path class="cls-2" d="M165.31,400.19a84.3,84.3,0,0,0-16.16,22.94c2.25-3.29,4.4-6.66,6.77-9.87a101.54,101.54,0,0,1,17.4-18.88c4.65-3.77,9.66-6.88,15.69-7.92,7.22-1.24,12.08,2.65,12.48,10,.37,6.85-1.57,13.24-4.29,19.36-7.87,17.77-19.1,33-35,44.45a40.09,40.09,0,0,1-10.12,5.26c-6.64,2.31-11.23-.55-12.73-7.46-1.2-5.51-.53-11,1-16.3,4.31-15.52,11.45-29.41,23.52-40.42.37-.34.74-.66,1.12-1A1.2,1.2,0,0,1,165.31,400.19Zm-25.09,51.36a70.1,70.1,0,0,0,1.39,7.69c1.25,4.17,4.46,6.07,8.61,4.78a38.71,38.71,0,0,0,9.36-4.29c8.83-5.68,15.83-13.32,22-21.71,7-9.42,12.95-19.4,16.29-30.76a29.81,29.81,0,0,0,1.33-11.52c-.54-5.22-3.83-7.8-9-7.1-5.51.74-10.13,3.48-14.46,6.71-9.9,7.37-17.55,16.82-24.08,27.14a120.7,120.7,0,0,0-9.2,17.65C141,443.68,140.9,447.82,140.22,451.55Z"/><path class="cls-2" d="M103.36,414.47c.6-.39,1.22-.75,1.79-1.18,6.19-4.63,12.52-9.08,18.52-13.94a177.58,177.58,0,0,0,24.64-23.94c2.59-3.09,5-6.34,7.36-9.63a12.88,12.88,0,0,0,1.72-4c.49-1.8-.75-3.35-3-3.91a40.25,40.25,0,0,0-12.44-.72c-10.72.69-21,3.49-31.23,6.39-3.77,1.07-7.39,2.68-11.09,4a8.21,8.21,0,0,1-2.69.45c2.63-2.91,6.33-3.91,9.95-5.59-.68-1.27-1.34-2.48-2-3.7-1-1.91-2-3.84-3-5.74-.52-1-.73-1.78.62-2.36,1.12-.48,2.06-1.41,3.19-1.79a2.26,2.26,0,0,1,2,.74c1.92,3.4,3.67,6.91,5.47,10.38a1.48,1.48,0,0,0,.24.26c4.12-1,8.23-2,12.33-3.06,8.6-2.17,17.29-3.63,26.18-2.7a22.81,22.81,0,0,1,6.46,2c2,.88,2.93,4.46,2.22,6.84-1.56,5.21-4.87,9.32-8.28,13.36a152.19,152.19,0,0,1-20.88,20.2,166.43,166.43,0,0,1-25.13,17.32c-.79.42-1.64.71-2.45,1.07Zm-.47-62.63c1.75,3.35,3.44,6.59,5.14,9.83,0,.1.18.16.34.29l3-1c-1.57-2.79-3-5.52-4.6-8.18C105.43,350.54,105.37,350.57,102.89,351.84Z"/><path class="cls-2" d="M64.06,308.13c3.09-3.56,165.77-68.5,174.1-68.32a33.58,33.58,0,0,1-3.1,1.65q-14,5.43-28,10.81c-19.86,7.68-39.75,15.3-59.57,23.09-6.06,2.38-11.89,5.32-17.87,7.91-6.32,2.74-12.65,5.46-19,8q-13.34,5.33-26.8,10.37c-5.81,2.17-11.71,4.12-17.57,6.15A14.64,14.64,0,0,1,64.06,308.13Z"/><path class="cls-2" d="M97.73,278.12c-.94-4.45-3.59-8.05-2.88-12.32l.58-.22a9.09,9.09,0,0,1,1.06,1.58q2.85,6.73,5.61,13.51c.5,1.22.91,2.58-.3,3.61s-2.58.38-3.73-.38c-3.35-2.22-6.67-4.47-10-6.72a3.72,3.72,0,0,1-1.12-.95,5.35,5.35,0,0,1-.44-1.47c.55-.1,1.21-.45,1.63-.26,1.41.62,2.73,1.43,4.09,2.17a2.86,2.86,0,0,0,1.49.47c-.91-1-1.82-2-2.71-3.08-5.39-6.3-10.51-12.81-13.92-20.44a24,24,0,0,1-2-7.08c-.46-4.33,1.58-7.1,5.89-7.76a53.68,53.68,0,0,1,9.58-.19c3.26.08,6.52.55,9.78.57,3.94,0,5.56-2.13,4.83-6a27.67,27.67,0,0,0-6-12.2c-5.84-7.25-12-14.3-18-21.4-3.4-4-6.75-8-8.92-12.91-3.27-7.31-1.19-13.15,6-16.52,7.56-3.53,15.16-2.57,22.69.18.49.18.78.93,1.16,1.41-.64.18-1.32.6-1.9.49-3.51-.64-7-1.64-10.52-2.07a18.91,18.91,0,0,0-12.1,2.62c-4.57,2.72-6,6.72-4.15,11.72s5.1,9,8.43,13c5.88,7.07,12,14,17.6,21.24,2.47,3.17,4.21,6.95,6,10.6a13.39,13.39,0,0,1,1,5.21c.17,3.71-1.72,5.9-5.45,6.06-2.94.13-5.9-.28-8.85-.4-3.15-.12-6.3-.41-9.43-.22-5,.3-7.2,3.16-5.82,8a39.89,39.89,0,0,0,4,9.11C85.56,264.66,91.34,271.33,97.73,278.12Z"/><path class="cls-2" d="M245.28,363.56a58.05,58.05,0,0,0-21.12,21.54l-.53-.15a5,5,0,0,1,0-1.85,31.06,31.06,0,0,1,2.46-4.76,57.16,57.16,0,0,1,16.29-15.69c1.42-.94,3.07-2.1,4.76-.78s1.15,3.28.4,4.79c-2.33,4.75-4.49,9.67-7.43,14q-13.58,20.1-27.7,39.83c-13.42,18.8-26.09,38.08-38.37,57.63a32.25,32.25,0,0,1-2,2.89c-.19.25-.72.22-1.09.32,0-.34-.19-.73-.07-1a20.55,20.55,0,0,1,1.11-2.13c10-17.76,21.78-34.41,33.47-51.09,10.88-15.51,21.84-31,32.52-46.61,2.83-4.15,4.84-8.87,7.13-13.37A14.54,14.54,0,0,0,246,364Z"/><path class="cls-2" d="M176.67,484.92a14.65,14.65,0,0,1,1.93-1.52c5.87-3.28,11.79-6.48,17.66-9.77,22.89-12.81,46.07-25.08,69.76-36.36,11.81-5.63,23.79-10.89,35.69-16.31a10,10,0,0,1,1.32-.39l.26.49c-1.2.74-2.35,1.59-3.61,2.21-7,3.46-14,6.74-20.93,10.29q-39.37,20.2-78.67,40.52-10.53,5.43-21.09,10.81a14.85,14.85,0,0,1-1.91.67Z"/><path class="cls-2" d="M138.62,364.62a13.77,13.77,0,0,1-.81,2.33,8.31,8.31,0,0,1-7.6,4.13c-2.46,0-4.92-.35-7.37-.57-5.27-.48-8.11,1.3-10,6.2a46.69,46.69,0,0,1-2.14,4.91,6.25,6.25,0,0,1-6.86,3.6q-5.22-.69-10.47-1.21c-4.24-.43-7.29,1.37-9.64,4.91a36.43,36.43,0,0,1-5.63,6.8c-3.44,3.14-6.8,3.4-10.65.81a61.38,61.38,0,0,1-7-6.2,3.21,3.21,0,0,1-.82-1.91c1.62,1.48,3.16,3.06,4.86,4.43,6.67,5.35,10.9,4.62,15.46-2.57.95-1.51,1.86-3,2.88-4.52,2.07-3,4.92-4.8,8.57-4.7a84.56,84.56,0,0,1,11,1c4.43.71,5.49.32,7.37-3.77.49-1.07.89-2.17,1.36-3.25,2.2-5.06,6-7.3,11.47-6.78,1.78.17,3.56.4,5.32.72,4.11.77,7.63.14,9.91-3.82C137.87,365.06,138.07,365,138.62,364.62Z"/><path class="cls-2" d="M139.32,410.08c2.88-2.38,5.74-4.78,8.65-7.14,9.12-7.39,18-15.08,25.67-24,4.69-5.44,9.07-11.17,12.09-17.75a23.47,23.47,0,0,0,2-6.69c.49-3.86-1.69-6.88-5.39-8.24-5.63-2.09-11.39-1.69-17.15-.85-3.69.53-7.36,1.23-11.19,1.54a4.86,4.86,0,0,1,1.05-.61,38.82,38.82,0,0,1,4.45-1.27c5.93-1.11,11.89-2.26,18-1.61,3.21.34,6.44,1,9.08,3.16,4.17,3.44,4,8.48,2.34,12.84-4.19,11.19-12,19.81-20.4,27.87-4.91,4.7-10.21,9-15.52,13.28-4.3,3.44-8.87,6.54-13.32,9.79Z"/><path class="cls-2" d="M136.88,148.76c.59,3,1.19,5.79,1.68,8.63a6,6,0,0,1-.34,2c-.45-.51-1.1-.95-1.31-1.54-.67-1.9-1.18-3.86-1.84-6.12-1.33,1.37-2.53,2.5-3.56,3.76a2.22,2.22,0,0,0-.13,1.68c.35,1.5.85,3,1.23,4.46a3.88,3.88,0,0,1,0,2c-2.13-1.39-2-4-3.23-5.82-4,1.33-3.22,4.87-3.54,8-.53-.25-1-.34-1.1-.54-.58-2.13-1.47-4.16-.83-6.54a51.12,51.12,0,0,0,.84-6.22,13.93,13.93,0,0,1,.68-3.24,2.33,2.33,0,0,1,1.49-1.37,2.23,2.23,0,0,1,1.71,1.06c.74,1.47,1.24,3.07,2,4.93,1.35-1.28,2.64-2.39,3.79-3.63a2.25,2.25,0,0,0,.2-1.55c-.4-3.24-.84-6.47-1.3-9.9L130,142.67l-.6-.24c.11-.61,0-1.38.36-1.81,1.66-2.12,3.36-4.23,5.22-6.17a2.65,2.65,0,0,1,2.45-.52,3.08,3.08,0,0,1,1.17,2.42c-.14,2.26-.68,4.5-.93,6.77-.32,3,0,3.33,3,3.29,1.53,0,3.07-.24,4.61-.33.7,0,1.42,0,2.25,0C146.59,148.06,145.09,148.42,136.88,148.76Zm-.22-12.57-.53-.24-1.8,1.53,1.51,3.62C136.15,139.24,136.4,137.72,136.66,136.19Zm-10,20.87c2.38-1.69,2.4-1.88.65-4.84Z"/><path class="cls-2" d="M68.46,311.59l-6.95,2.81c.1.14.17.29.21.29,4.37-.5,4.32-.48,6.44,3.56,3.06,5.81,6.33,11.51,9.25,17.39,2.7,5.44,5.11,11,7.55,16.59,2.22,5,4.33,10.16,6.43,15.26.7,1.7,1.24,3.46,1.8,5.21a10.84,10.84,0,0,1,.29,1.72l-.62.23c-.92-2-1.8-4-2.75-6-2.68-5.58-5.35-11.17-8.1-16.71-2.43-4.89-5.08-9.67-7.43-14.6C72,331.79,69.52,326.15,67,320.54a13.34,13.34,0,0,1-.87-2.82c-.33-1.78-1.45-2.33-3.08-2.14-.73.09-1.44.38-2.17.41a6.61,6.61,0,0,1-1.66-.37,9,9,0,0,1,.56-1.66,1.94,1.94,0,0,1,1-.76c2.42-.81,4.87-1.56,7.3-2.33Z"/><path class="cls-2" d="M66.93,405.11c2.19.76,4.36,1.62,6.58,2.26,6.14,1.78,10.32.46,14.21-4.57,1.58-2.05,2.92-4.28,4.31-6.46,4.19-6.63,8.38-8.5,16-7.22,1.88.31,3.8.43,5.7.59a7,7,0,0,0,7-3.84c1.15-2,2.1-4.05,3.22-6a11.29,11.29,0,0,1,11.49-5.8,1.3,1.3,0,0,1,1,.73c-.75.11-1.49.24-2.24.34-4.27.61-7.47,2.67-9.31,6.7a55.57,55.57,0,0,1-2.87,5.59A8.54,8.54,0,0,1,114,391.9a65.13,65.13,0,0,1-7-.65c-5.27-.81-9.29,1-12.23,5.42a92.34,92.34,0,0,1-5.48,7.89c-4.24,5.12-9.34,6.47-15.59,4.26-2.4-.85-4.67-2.09-7-3.14Z"/><path class="cls-2" d="M149.88,281.76c-.35-1.13-.35-1.13,2.37-4.19-1.8.71-3.64,1.34-5.4,2.14-3.24,1.46-6.39,3.12-9.65,4.53-6.14,2.65-12.33,5.21-18.52,7.75-4.84,2-9.73,3.82-14.57,5.78-5,2-10,4.16-15,6.14-3.77,1.49-7.6,2.81-11.41,4.19a21.45,21.45,0,0,1-3,1c-.5.11-1.09-.24-1.63-.38.36-.41.64-1,1.09-1.2,2.15-.9,4.36-1.67,6.53-2.53l27.42-10.86c8.74-3.45,17.53-6.8,26.24-10.34,5.4-2.19,10.69-4.65,16-7a5.9,5.9,0,0,1,2.29-.63,5.68,5.68,0,0,1,1.89.73c-.29.67-.4,1.55-.9,2A47.23,47.23,0,0,1,149.88,281.76Z"/><path class="cls-2" d="M105.12,180.31l1.95,1.42a25.07,25.07,0,0,0,2.73,1.89,3.88,3.88,0,0,0,4.36-.38,3.5,3.5,0,0,0,1.38-4,33.05,33.05,0,0,0-2.49-6.54c-3.41-6.15-7.1-12.15-10.51-18.3a24.21,24.21,0,0,1-2.42-6.37c-.75-3.4,1.6-5.2,4.86-4,3,1.16,6.13,5.37,6.11,8.45a3.75,3.75,0,0,1-1,2.18,10.79,10.79,0,0,0-3.34-7.47,8.74,8.74,0,0,0-3.26-1.93,1.24,1.24,0,0,0-1.75,1.45,10.66,10.66,0,0,0,1.07,3.86c2.19,3.79,4.59,7.46,6.88,11.19s4.56,7.2,6.54,11a20.42,20.42,0,0,1,2,6.48,6.12,6.12,0,0,1-5.33,6.85A7.51,7.51,0,0,1,105.12,180.31Z"/><path class="cls-2" d="M124.36,353.05c-.92-1.92-1.85-3.84-2.75-5.77-1.56-3.33-3.31-6.59-4.59-10s-2-7.2.57-10.57c.76-1,.69-1.69-.33-2.44a8.72,8.72,0,0,1-1.63-1.74,4.76,4.76,0,0,1-.48-1.1l.45-.3a34.35,34.35,0,0,0,2.73,2.54c.49.38,1.35.77,1.81.57a2,2,0,0,0,.79-1.69c-.13-1.52-.51-3-.79-4.54l.82-.22a16.17,16.17,0,0,1,.78,2.69c.23,1.87.81,3.07,3,3.34,4.27.53,6.41,3.82,8.22,7.23,2.18,4.1,4.17,8.32,6.24,12.49a1.63,1.63,0,0,1,.26.69c-.07.82-.2,1.64-.3,2.46-.78-.43-1.93-.66-2.29-1.32-2-3.74-3.72-7.64-5.74-11.37a34.68,34.68,0,0,0-4.34-6.47c-1.57-1.77-3.94-1.83-6-.91-2.31,1-3.08,3.19-3.18,5.62-.15,3.8,1.79,7,3.2,10.26l4.38,10.24Z"/><path class="cls-2" d="M127.4,144.51a16.21,16.21,0,0,1-1.34,1.83c-2.1,2.18-4.21,4.35-6.37,6.46a2.79,2.79,0,0,0-1,2.92c1,4.39,1.82,8.82,2.71,13.23a6.79,6.79,0,0,1,.31,1.63,4.87,4.87,0,0,1-.5,1.41c-.42-.3-1-.51-1.22-.91a19,19,0,0,1-1.25-3.48c-.88-3.64-1.68-7.3-2.51-11-1,1-2.05,2.07-3.2,3.05a4.81,4.81,0,0,1-1.57.57c.07-.55,0-1.24.26-1.64a32.25,32.25,0,0,1,3.31-4c3.21-3.15,6.51-6.22,9.8-9.29a16,16,0,0,1,2-1.38Z"/><path class="cls-2" d="M102.71,330.7c1.12,2,2.06,3.5,2.83,5.09a13.86,13.86,0,0,1,1.27,3.61,3.4,3.4,0,0,1-2.29,4c-2,.88-4,1.82-6.06,2.73l-.33-.57c.16-.28.25-.67.49-.82a37.14,37.14,0,0,1,3.56-1.94c2.57-1.18,3.42-1.89,2-5.59-.3-.8-.78-1.53-1.09-2.33-1-2.52-1.17-2.66-3.61-1.64-2.09.88-4.12,1.91-6.28,2.92,1.61,3.45,3.17,6.8,4.74,10.15l-.64.51c-.45-.33-1.06-.57-1.3-1-1.59-3-3.14-6-4.61-9a1.92,1.92,0,0,1,.37-1.55c.5-.67,1.36-1.1,1.79-1.81C96,329.46,99.7,330.77,102.71,330.7Zm-2.51,1.19c-2.54-.82-4,.07-5.57,1.86Z"/><path class="cls-2" d="M229.1,145.3a4.88,4.88,0,0,1,0-1.31,8.87,8.87,0,0,1,5.54-5.3c2.43-.85,3.85.52,4.43,3.91.84-.5,1.6-1,2.38-1.42,2.71-1.6,5.18-.44,5,2.64-.11,2.15-1,4.27-1.65,6.38-.09.31-.56.5-1.33.56.27-1.51.54-3,.82-4.53.25-1.36,1.12-3.16-.34-3.86-.81-.38-2.47.78-3.62,1.46a31.29,31.29,0,0,0-2.7,2.23c-.3.23-.95.46-1.1.32a1.77,1.77,0,0,1-.49-1.23c0-.79.31-1.58.3-2.37,0-.62-.12-1.61-.48-1.77a2.43,2.43,0,0,0-2,.21,37.68,37.68,0,0,0-3.51,2.94C230,144.46,229.65,144.79,229.1,145.3Z"/><path class="cls-2" d="M146.43,135a41.44,41.44,0,0,1-3.46,3,6.74,6.74,0,0,1-2.22.63,6.81,6.81,0,0,1,.66-2.24,16.08,16.08,0,0,1,2.71-2.76c2.79-2.34,5.61-4.65,8.48-6.88a7.33,7.33,0,0,1,2.19-.73,7.26,7.26,0,0,1-1,2.15c-1.54,1.59-3.19,3.08-4.89,4.52a2.25,2.25,0,0,0-.86,2.55c.8,3.42,1.5,6.86,2.21,10.31a3.31,3.31,0,0,1-.19,1.94C148.19,143.6,147.57,139.39,146.43,135Z"/><path class="cls-2" d="M151.43,340.25c-.56-1-1.15-1.93-1.66-2.93-1.05-2.09-2.06-4.19-3.09-6.28-.1-.23-.23-.44-.31-.67-.55-1.57.73-2.75,4.15-3.67,1.21-.33,1.6.4,2,1.51.76,2.13,1.87,4.14,2.82,6.2a17.18,17.18,0,0,1,1.32,3.22c.14.61-.32,1.36-.52,2.05-.59-.32-1.45-.48-1.72-1-1.11-2-2-4-3-6.06a10,10,0,0,0-1-2.17,2,2,0,0,0-1.61-.45c-.21,0-.56,1-.42,1.37.7,1.9,1.55,3.75,2.32,5.62.41,1,.78,2,1.17,3Z"/><path class="cls-2" d="M223.84,141.24l-8.3,15.62-.55,0c-.14-.6-.53-1.27-.38-1.79a32.92,32.92,0,0,1,7.1-13.39,6.16,6.16,0,0,1,1.92-.95Z"/><path class="cls-2" d="M224.11,156.9a29.66,29.66,0,0,1,2-4.68,59.84,59.84,0,0,1,4.66-6.12c.31-.38,1.18-.3,1.78-.43,0,.62.15,1.36-.13,1.83-2,3.42-4.18,6.79-6.34,10.14-.24.39-.83.56-1.26.83Z"/><path class="cls-2" d="M234.54,159.74c.54-1.49,1-3,1.6-4.35,1.24-2.6,2.49-5.25,5.1-6.83a4,4,0,0,1,1.46-.23,4.23,4.23,0,0,1-.14,1.49c-1.79,3.35-3.63,6.67-5.46,10a2.15,2.15,0,0,1-.4.61c-.45.35-.94.65-1.41,1Z"/><path class="cls-2" d="M218.54,163.68c4.16-.6,16.43,4.41,17.67,7.4l-17.88-6.83Z"/><path class="cls-2" d="M205.38,186.22c-.71-3.45,2.88-15.32,5.05-16.71C210.91,171.76,206.83,185.27,205.38,186.22Z"/><path class="cls-2" d="M229,159a29.06,29.06,0,0,1,.31-3.15c.61-2.63,1.63-5.05,4-6.57a1.76,1.76,0,0,1,1.31-.17c.2.06.42.82.28,1.06-1.5,2.67-3.06,5.31-4.64,7.94C230.1,158.39,229.7,158.52,229,159Z"/><path class="cls-2" d="M137.88,298.63a12.48,12.48,0,0,1,3.05,8c0,1.18-.7,1.5-1.88,1.34a5.17,5.17,0,0,1-4.49-3.55,14.51,14.51,0,0,1-1-3.09c1.84,2,2.25,5.52,5.94,5.28C140.49,303.63,138.08,301.38,137.88,298.63Z"/><path class="cls-2" d="M238.19,162.67a9.26,9.26,0,0,1,.54-2c1.07-2.06,2.17-4.1,3.4-6.06.32-.52,1.15-.71,1.75-1.05,0,.66.31,1.45,0,2-1.12,2.1-2.36,4.13-3.64,6.13a7.87,7.87,0,0,1-1.53,1.39Z"/><path class="cls-2" d="M93.08,317.9c2,2.77,3.1,5.72,1.76,9.15C90.6,327.27,88,323.38,88,320c.7,1.18,1.44,2.32,2.07,3.53.84,1.57,3.22,3.24,4.13,2.81s.79-3.25-.12-4.85c-.39-.7-.88-1.34-1.23-2.05a5.83,5.83,0,0,1-.32-1.4Z"/><path class="cls-2" d="M156.16,439.71a58,58,0,0,1,2.64-7,87.76,87.76,0,0,1,16.64-23.18c1.79-1.78,3.37-3.77,5.2-5.5,1.12-1.05,2.49-2.49,4.2-1.45s1.12,2.76.76,4.24A68.85,68.85,0,0,1,167.44,440a23.23,23.23,0,0,1-6.73,4.42C158,445.65,156.11,444.1,156.16,439.71Zm1.68.31c-.09,2.79.85,3.66,2.47,2.74a28.78,28.78,0,0,0,7-5A71.9,71.9,0,0,0,184,406.85a11.4,11.4,0,0,0,0-3.14,11.09,11.09,0,0,0-3,1.5c-2.49,2.42-4.89,5-7.2,7.56a86.84,86.84,0,0,0-14,21.66A53.57,53.57,0,0,0,157.84,440Z"/><path class="cls-2" d="M286.15,154.2c4.73,2.68,9.66,2.62,14.61.83,10.17-3.68,17.24-10.47,20-21.09.82-3.18.68-6.61.93-9.93a2,2,0,0,0-1.55-2.24,3.34,3.34,0,0,1-.66-.42l.13-.35a9.47,9.47,0,0,1,2.09.68c7.89,4.8,13.38,11.35,14.09,20.89A26.92,26.92,0,0,1,326,166.12c-4.51,3.84-10,5.44-15.78,5.75A27.33,27.33,0,0,1,293,167.43a18,18,0,0,1-6.31-7.49A7.54,7.54,0,0,1,286.15,154.2Zm36.35-30.87c0,.4,0,.67.06.94a29.16,29.16,0,0,1-.67,10.93c-3,11.27-10.58,18.21-21.36,21.84-4.8,1.62-9.63,1.72-14.24-1.31a16.14,16.14,0,0,0,1,3.7,16.76,16.76,0,0,0,7.66,7.83,28,28,0,0,0,24.75.76c9.82-4.26,15.72-15.41,14.44-26.45-.9-7.69-5.15-13.32-11-17.95A3.86,3.86,0,0,0,322.5,123.33Z"/></g><path class="cls-2" d="M351,373.22c7-2.09,13.72-4.93,20.95-5.58l.2.58c-1.11.42-2.21.85-3.32,1.25-5.42,2-10.84,3.95-16.29,5.86a1.43,1.43,0,0,0-1.1,1.93c1.18,6.35,2.28,12.71,3.51,19.06.82,4.23,1.81,8.43,2.64,12.67-7.1-17.34-8.85-35.76-10.85-54.35-1.86.75-3.62,1.41-5.34,2.17-4.24,1.89-8.47,3.82-12.7,5.73-1.11.51-2.25,1-3.31,1.56a1.63,1.63,0,0,0-.84,2.29,1.84,1.84,0,0,1,0,1.4c-.12-.19-.25-.37-.35-.57-1.08-2.08-1.06-2.05-3.16-.93-4.29,2.29-8.6,4.54-12.91,6.8-.79.42-1.57.87-2.39,1.23a9.8,9.8,0,0,1-1.71.38c.37-1.37.63-2.44,1-3.49,1.07-3.43,2.09-6.87,3.26-10.27A191.35,191.35,0,0,1,320.31,334c.59-1.12,1.09-2.28,1.59-3.45.32-.73.62-1.57,1.61-1.3s1.11,1.08.93,2a73.38,73.38,0,0,0-1.16,17.57c.17,4.16.4,8.32.6,12.49,0,.8.48.92,1.11.64,5.15-2.31,10.29-4.65,15.45-6.95,1.73-.78,3.5-1.46,5.25-2.18a1.5,1.5,0,0,0,1-1.71,226.15,226.15,0,0,1,.56-33.23c.77-8.47,1.69-16.92,4.09-25.12a14.5,14.5,0,0,1,1.4-2.85c-4.11,20.33-4.78,40.79-3.89,61.59,10.14-3.44,19.85-7.23,30.17-8.8l.15.47-3.84,1.23c-4.29,1.39-8.59,2.74-12.86,4.21-3.83,1.33-7.6,2.83-11.42,4.21-2,.7-2,.65-1.83,2.72.48,5.4,1,10.79,1.52,16.18C350.77,372.19,350.89,372.66,351,373.22ZM322.58,363a121.57,121.57,0,0,1-1.91-24.12,180.31,180.31,0,0,0-14,32.39Z"/><path class="cls-2" d="M276.1,388.16c-.1-.75-.32-1.25-.19-1.63.92-2.7,1.83-5.41,2.88-8.06,2.94-7.47,5.87-15,9-22.36,2.8-6.7,5.58-13.43,8.79-19.93,4.81-9.77,10-19.36,15-29a64.57,64.57,0,0,1,7.13-11.49,15.62,15.62,0,0,1,7.16-5.2c12.46-4.26,21.41-3.93,24.84-4.16l.06.52c-1,.18-2,.39-3,.53-3.09.43-6.21.71-9.28,1.29-2.69.51-5.32,1.36-8,2a19,19,0,0,0-12.68,10c-3.79,7.23-7.38,13-11.06,20.25-4,7.94-7.77,16-11.47,24.11-2.65,5.82-5,11.77-7.5,17.66-2.81,6.65-5.59,13.31-8.43,19.95-.7,1.62-1.6,3.15-2.43,4.71C276.82,387.6,276.59,387.72,276.1,388.16Z"/><path class="cls-2" d="M327.74,383.92c3.23,15.57,7.22,30.77,13.76,45.2l-.34.18c-1.41-2.37-2.87-4.71-4.21-7.11A67.83,67.83,0,0,1,331.16,407c-1.65-6-3-12-4.48-18a26.21,26.21,0,0,1-.45-3.2c-.12-1.15-.82-1-1.56-.72-1.88.76-3.76,1.53-5.62,2.34-3.94,1.7-31.12,15.38-35.88,18-1.54.84-5,2.51-6.53,3.36-.28.16-.73,0-1.1,0,.11-.35.1-.84.34-1.05a42.12,42.12,0,0,1,4.73-3.63c20.85-11,39.89-20.12,52.76-24.06,1.18-.45,2.4-.8,3.61-1.15.24-.07.55.12.82.19-.12.25-.18.64-.38.73-2.43,1.08-4.87,2.11-7.32,3.15Z"/></svg>