<svg id="Layer_1" data-name="Layer 1" xmlns="http://www.w3.org/2000/svg" viewBox="0 0 296.08 325.94"><defs><style>.cls-1{fill:#fff;}.cls-2{fill:#fcfcfc;fill-rule:evenodd;}</style></defs><title>nightrunlogo-01</title><path class="cls-1" d="M89.74,91.42,75.33,111.66H86.45l-1.82,10.72H59.45l1.65-9.52,14.29-20.2H65.86l1.82-10.43H91.33Z"/><path class="cls-1" d="M107.78,116.49h-7.21l-2.1,5.89H86.11L103,82.23H117.7l2.1,40.15h-12Zm-4.37-9H108V94.25h-.23Z"/><path class="cls-1" d="M121.64,122.38l7-40.15h11.86a20.17,20.17,0,0,1,7.28,1.16,12.21,12.21,0,0,1,4.83,3.26,12.82,12.82,0,0,1,2.66,5,23.65,23.65,0,0,1,.82,6.44,40.52,40.52,0,0,1-.34,5.1,28.23,28.23,0,0,1-1.22,5.42,25.71,25.71,0,0,1-2.35,5.19,16.79,16.79,0,0,1-3.77,4.4,18.18,18.18,0,0,1-5.5,3,22.29,22.29,0,0,1-7.46,1.13Zm22.23-23.14a17.85,17.85,0,0,0-.17-2.44,7.1,7.1,0,0,0-.62-2.12,3.85,3.85,0,0,0-1.28-1.51,3.63,3.63,0,0,0-2.07-.56h-1L135.42,112h1.08a4.93,4.93,0,0,0,3.51-1.34,9.76,9.76,0,0,0,2.27-3.29,17.66,17.66,0,0,0,1.22-4.17A23.83,23.83,0,0,0,143.87,99.24Z"/><path class="cls-1" d="M173.65,116.49h-7.21l-2.1,5.89H152l16.9-40.15h14.69l2.1,40.15h-12Zm-4.37-9h4.54V94.25h-.23Z"/><path class="cls-1" d="M221.4,93.51a14.52,14.52,0,0,1-1.73,7.38,10.12,10.12,0,0,1-4.9,4.37l3.8,17.12H206l-2.15-14.63H202.4l-2.55,14.63H188.51l7-40.15h13.9q5.84,0,8.93,2.83T221.4,93.51Zm-12,1.54a2.52,2.52,0,0,0-.94-2.33,3.44,3.44,0,0,0-1.79-.57h-1.58l-1.31,7.43h1.25a4.86,4.86,0,0,0,3-1A4.15,4.15,0,0,0,209.44,95.05Z"/><path class="cls-1" d="M96.45,171.81H84.09l-3.35-19.68h-.17l-3,19.68H67l7-40.16H86.64l3.18,20.25H90l3.18-20.25h10.21Z"/><path class="cls-1" d="M114.49,171.81h-12l7-40.16h12Z"/><path class="cls-1" d="M146.25,144.19a7.57,7.57,0,0,0-1.9-1.56,6.24,6.24,0,0,0-6.46.68,10.26,10.26,0,0,0-2.59,3.23,17.33,17.33,0,0,0-1.53,4.31,21.13,21.13,0,0,0-.51,4.46,11.39,11.39,0,0,0,.26,2.46,5.83,5.83,0,0,0,.82,2,4.28,4.28,0,0,0,1.5,1.36,4.91,4.91,0,0,0,2.36.51,6.58,6.58,0,0,0,1.19-.11,2.46,2.46,0,0,0,1-.4l.74-4h-4.54l1.82-10.38h15l-4,22.74a19.51,19.51,0,0,1-5.44,2.53,24.31,24.31,0,0,1-6.75.88,17.5,17.5,0,0,1-6.75-1.2,12.68,12.68,0,0,1-4.8-3.34,14.08,14.08,0,0,1-2.83-5.13,21.41,21.41,0,0,1-.94-6.5,33.26,33.26,0,0,1,1.48-10,27.58,27.58,0,0,1,4.17-8.37,20.61,20.61,0,0,1,6.41-5.75,16,16,0,0,1,8.13-2.13,20.4,20.4,0,0,1,4.23.4,15.72,15.72,0,0,1,3.35,1.05,11.12,11.12,0,0,1,2.49,1.5,9.86,9.86,0,0,1,1.73,1.76Z"/><path class="cls-1" d="M183.86,171.81H172l2.72-15.54h-5.95l-2.72,15.54h-11.8l7-40.16H173l-2.44,14h6l2.38-14h11.91Z"/><path class="cls-1" d="M218,141.75h-7.15l-5.22,30.06H193.89l5.28-30.06H192l1.76-10.1h26Z"/><path class="cls-1" d="M122.68,192.37a14.59,14.59,0,0,1-1.72,7.37,10.14,10.14,0,0,1-4.91,4.37l3.8,17.13H107.31l-2.15-14.64h-1.48l-2.55,14.64H89.79l7-40.16h13.9q5.84,0,8.93,2.84C121.65,185.81,122.68,188.62,122.68,192.37Zm-12,1.53a2.51,2.51,0,0,0-.94-2.33A3.52,3.52,0,0,0,108,191h-1.58l-1.31,7.43h1.25a4.84,4.84,0,0,0,3-1A4.18,4.18,0,0,0,110.72,193.9Z"/><path class="cls-1" d="M153.88,205.58a43.81,43.81,0,0,1-1.67,6.64,16.66,16.66,0,0,1-2.92,5.3,13.15,13.15,0,0,1-4.74,3.55,16.88,16.88,0,0,1-7,1.3,17.23,17.23,0,0,1-5.87-.91,11.72,11.72,0,0,1-4.22-2.52,10.41,10.41,0,0,1-2.58-3.86,13.18,13.18,0,0,1-.88-4.9c0-.76,0-1.52.11-2.3s.19-1.56.34-2.35l4.26-24.45h12l-4.08,23.6c-.11.64-.21,1.23-.28,1.78a10.52,10.52,0,0,0-.12,1.51,3.78,3.78,0,0,0,.54,2.15,1.89,1.89,0,0,0,1.68.79,2.6,2.6,0,0,0,2.63-1.67,21.32,21.32,0,0,0,1.22-4.56l4.09-23.6h11.85Z"/><path class="cls-1" d="M185.7,221.24H173.33L170,201.56h-.17l-3,19.68H156.26l7-40.16h12.65l3.17,20.25h.23l3.18-20.25h10.21Z"/><path class="cls-1" d="M108,230.51h7.2l-5.67,15.08h-8.06Z"/><polygon class="cls-1" points="85.57 116.84 86.45 111.67 75.33 111.67 89.74 91.42 91.33 82.23 67.68 82.23 65.86 92.66 75.39 92.66 68.02 103.08 75.39 112.31 84.4 117.06 85.57 116.84"/><polygon class="cls-1" points="117.7 82.23 106.1 82.23 118.17 91.26 117.7 82.23"/><polygon class="cls-1" points="86.11 122.39 92.09 122.39 87.87 118.2 86.11 122.39"/><path class="cls-1" d="M121.64,122.38h10.88c.34,0-9.81-6.17-9.81-6.17Z"/><polygon class="cls-1" points="173.82 107.47 169.28 107.47 169.78 105.93 161.24 100.39 151.98 122.39 164.34 122.39 166.44 116.49 173.65 116.49 173.65 122.39 185.67 122.39 185.11 111.73 173.82 107.45 173.82 107.47"/><path class="cls-1" d="M86.64,131.65H84.32l2.84,3.29Z"/><path class="cls-1" d="M80.74,152.13l0,.14,3.32,19.54H96.45l2-11.41a311.41,311.41,0,0,1-25.12-24.88l-4,23.27,9.19,7.08,2.1-13.74Z"/><polygon class="cls-1" points="111.85 171.81 103.53 165.66 102.47 171.81 111.85 171.81"/><path class="cls-1" d="M137.18,173a27.73,27.73,0,0,0,3.08-.18l-18.31-14c0,.62.13,1.22.23,1.8l14.08,12.32C136.57,172.92,136.86,173,137.18,173Z"/><path class="cls-1" d="M149.37,169.54l4-22.74h-15l-1.82,10.38h4.54l-.74,4a2.46,2.46,0,0,1-1,.4l-.33,0,10.17,8Z"/><path class="cls-1" d="M133.26,155.31a21.13,21.13,0,0,1,.51-4.46,17.33,17.33,0,0,1,1.53-4.31,10.26,10.26,0,0,1,2.59-3.23,6.24,6.24,0,0,1,6.46-.68,7.57,7.57,0,0,1,1.9,1.56l7.6-9a9.86,9.86,0,0,0-1.73-1.76,11.12,11.12,0,0,0-2.49-1.5,15.72,15.72,0,0,0-3.35-1.05,20.4,20.4,0,0,0-4.23-.4,16,16,0,0,0-8.13,2.13,20.61,20.61,0,0,0-6.41,5.75,27.58,27.58,0,0,0-4.17,8.37c-.2.65-.38,1.3-.54,2l10.61,8.4A12,12,0,0,1,133.26,155.31Z"/><polygon class="cls-1" points="169.77 147.43 159.01 144.43 156.16 160.81 166.56 168.85 168.77 156.27 174.72 156.27 172 171.81 183.85 171.81 186.47 156.76 169.77 147.43"/><polygon class="cls-1" points="178.92 131.65 177.65 139.1 188.45 145.37 190.83 131.65 178.92 131.65"/><polygon class="cls-1" points="172.97 131.65 164.82 131.65 172.22 135.95 172.97 131.65"/><polygon class="cls-1" points="193.89 171.81 205.63 171.81 206.25 168.25 195.52 162.53 193.89 171.81"/><polygon class="cls-1" points="146.34 181.08 146.25 181.58 156.64 189.89 158.19 181.08 146.34 181.08"/><path class="cls-1" d="M142.25,204.68a21.32,21.32,0,0,1-1.22,4.56,2.6,2.6,0,0,1-2.63,1.67,1.89,1.89,0,0,1-1.68-.79,3.78,3.78,0,0,1-.54-2.15,10.52,10.52,0,0,1,.12-1.51c.07-.55.17-1.14.28-1.78l1.49-8.63-10.78-6.88-2.85,16.36c-.15.79-.26,1.58-.34,2.35s-.11,1.54-.11,2.3a13.18,13.18,0,0,0,.88,4.9,10.41,10.41,0,0,0,2.58,3.86,11.72,11.72,0,0,0,4.22,2.52,17.23,17.23,0,0,0,5.87.91,16.88,16.88,0,0,0,7-1.3,13.15,13.15,0,0,0,4.74-3.55,16.66,16.66,0,0,0,2.92-5.3c.21-.62.41-1.27.59-1.92l-10.12-8.11Z"/><polygon class="cls-1" points="179.29 201.33 179.06 201.33 178.47 197.51 165.32 192.81 161.15 193.08 158.19 210.14 168.2 212.15 169.82 201.56 169.99 201.56 172.48 216.19 177.81 221.24 185.7 221.24 188.39 205.77 179.72 198.6 179.29 201.33"/><polygon class="cls-1" points="192.68 181.08 184.68 181.08 191.84 185.91 192.68 181.08"/><polygon class="cls-1" points="156.26 221.24 165.32 221.24 157.46 214.36 156.26 221.24"/><polygon class="cls-1" points="101.42 245.59 109.48 245.59 112.66 237.15 107.61 231.29 101.42 245.59"/><path class="cls-1" d="M106.41,191H108a3.52,3.52,0,0,1,1.79.56,2.51,2.51,0,0,1,.94,2.33,5.55,5.55,0,0,1-.46,2.35l7.65,6.8a10.12,10.12,0,0,0,3-3.31,14.59,14.59,0,0,0,1.73-7.37c0-3.75-1-6.56-3.1-8.45s-5-2.84-8.93-2.84H96.76l-.47,2.74,9.84,8.76Z"/><path class="cls-1" d="M219.67,100.89l0,0-10.83-3.22a3,3,0,0,1-.76.92,4.86,4.86,0,0,1-3,1h-1.25l.58-3.27L193.59,93.1l-1.28,7.41L216,110.66l-1.2-5.4A10.12,10.12,0,0,0,219.67,100.89Z"/><polygon class="cls-1" points="182.47 181.08 179.72 198.6 188.39 205.77 191.84 185.91 182.47 181.08"/><polygon class="cls-1" points="108.58 136.63 105.95 151.73 116.62 159.56 119.7 141.82 108.58 136.63"/><polygon class="cls-1" points="88.97 115.59 95.17 100.86 103.41 107.47 107.95 107.47 119.52 117.06 119.8 122.39 107.78 122.39 107.78 116.49 100.57 116.49 98.94 121.07 88.97 115.59"/><polygon class="cls-1" points="127.71 186.73 128.7 181.08 140.66 181.08 138.4 194.19 127.71 186.73"/><polygon class="cls-1" points="98.58 159.56 101.31 143.82 92.09 145.75 91.33 153.67 98.58 159.56"/><path class="cls-1" d="M155.72,103.21a40.52,40.52,0,0,0,.34-5.1v-.18l-27.9-13.1-2,11.57,11,5.68,1.63-9.47h1a3.63,3.63,0,0,1,2.07.56,3.85,3.85,0,0,1,1.28,1.51,7.1,7.1,0,0,1,.62,2.12,17.85,17.85,0,0,1,.17,2.44,23.83,23.83,0,0,1-.37,4,19.59,19.59,0,0,1-.43,1.94l10.66,5.51a21.67,21.67,0,0,0,.77-2A28.23,28.23,0,0,0,155.72,103.21Z"/><path class="cls-1" d="M262.2,192.33a2.88,2.88,0,0,1-1.43-.39l-43.95-25.82a2.84,2.84,0,0,1,2.87-4.9l44,25.82a2.84,2.84,0,0,1-1.45,5.29Z"/><path class="cls-1" d="M201.74,165.35a2.46,2.46,0,0,1-1.27-.35c-3.86-2.29-94.68-56.4-116.48-78.09C74.44,77.42,70.59,67.7,72.55,58c4.34-21.38,35.71-34.23,37-34.77a2.5,2.5,0,0,1,1.87,4.64c-.3.12-30.22,12.39-34,31.13C75.85,67,79.23,75.13,87.51,83.37,108.88,104.62,202.08,160.14,203,160.7a2.5,2.5,0,0,1-1.28,4.65Z"/><path class="cls-1" d="M172.64,290.12a1,1,0,0,1-.72-.3C132,248.31,68.92,181.13,56.89,166,28.94,130.9,25.36,91.46,48.36,72.24a1,1,0,1,1,1.29,1.53c-22.14,18.5-18.44,56.77,8.8,91,12,15.07,75,82.18,114.91,123.66a1,1,0,0,1-.72,1.69Z"/><path class="cls-1" d="M219.65,153.05a1,1,0,0,1-.47-.12c-1-.5-94.86-50.88-117.43-66.1C90,78.91,83.8,70.42,83.31,61.61c-.6-10.84,7.68-18,8-18.31a1,1,0,0,1,1.3,1.53c-.08.06-7.89,6.85-7.33,16.69.46,8.15,6.37,16.11,17.56,23.65,22.48,15.17,116.31,65.49,117.25,66a1,1,0,0,1-.47,1.88Z"/><path class="cls-1" d="M260.86,124.26a2.16,2.16,0,0,1-.65-.11c-.72-.25-72.68-25.05-106.1-37.21C128,77.46,118,73.37,108.41,64.71c-6.78-6.1-8-11.59-8-11.82a2,2,0,0,1,3.92-.81c0,.11,1.1,4.55,6.77,9.66,9.1,8.18,18.85,12.16,44.38,21.45,33.4,12.14,105.32,36.93,106,37.18a2,2,0,0,1-.65,3.89Z"/><path class="cls-1" d="M233.78,256.77a1,1,0,0,1-.59-.19L177,215.49a1,1,0,0,1,1.18-1.62L234.37,255a1,1,0,0,1-.59,1.81Z"/><path class="cls-1" d="M161.51,319.38a2.86,2.86,0,0,1-2.21-1l-43.72-52.8a2.86,2.86,0,1,1,4.4-3.65l43.73,52.8a2.85,2.85,0,0,1-.38,4A2.8,2.8,0,0,1,161.51,319.38Z"/><path class="cls-1" d="M102.78,196.66a1.7,1.7,0,0,1-1.2-.49c-7-6.76-16.48-15.85-21.77-20.74-13.29-12.3-18.05-19.83-18.24-20.15a1.74,1.74,0,1,1,2.95-1.84h0c0,.07,4.76,7.5,17.66,19.43,5.3,4.91,14.79,14,21.81,20.79a1.74,1.74,0,0,1-1.21,3Z"/><path class="cls-1" d="M91.51,142.8a.72.72,0,0,1-.48-.17L89,141A175.36,175.36,0,0,1,73,126.47C49.31,102,63.51,85.53,63.66,85.37a.75.75,0,0,1,1.06-.06.76.76,0,0,1,.06,1.06C64.22,87,51.4,102,74.06,125.43A173,173,0,0,0,90,139.81l2,1.67a.75.75,0,0,1-.48,1.32Z"/><path class="cls-1" d="M144,244.14a15.46,15.46,0,0,1-.62,4.53,13.93,13.93,0,0,1-1.76,3.71A23,23,0,0,1,139,255.6a39.7,39.7,0,0,1-3.26,3l-8,6.73h12.76l-1.84,11.09H110.87l1.84-11.25,15.55-14.12a22.16,22.16,0,0,0,2.55-2.69,4.47,4.47,0,0,0,1-2.81,3.07,3.07,0,0,0-.44-1.59,1.84,1.84,0,0,0-1.7-.74,2.77,2.77,0,0,0-2.28,1.2,6.92,6.92,0,0,0-1.22,3.34l-11.57-1.47a21.14,21.14,0,0,1,2.31-6.15,15.86,15.86,0,0,1,3.68-4.37,15,15,0,0,1,4.81-2.59,18.79,18.79,0,0,1,5.76-.86,17.46,17.46,0,0,1,4.92.68,11.54,11.54,0,0,1,4.07,2.08,9.87,9.87,0,0,1,2.79,3.67A12.89,12.89,0,0,1,144,244.14Z"/><path class="cls-1" d="M176.87,244.14a15.46,15.46,0,0,1-.62,4.53,14.22,14.22,0,0,1-1.75,3.71,23.83,23.83,0,0,1-2.62,3.22,39.7,39.7,0,0,1-3.26,3l-8,6.73h12.76l-1.84,11.09H143.75l1.84-11.25,15.55-14.12a22.16,22.16,0,0,0,2.55-2.69,4.41,4.41,0,0,0,1-2.81,3.07,3.07,0,0,0-.44-1.59,1.82,1.82,0,0,0-1.69-.74,2.78,2.78,0,0,0-2.29,1.2,7,7,0,0,0-1.22,3.34l-11.57-1.47a21.43,21.43,0,0,1,2.31-6.15,15.86,15.86,0,0,1,3.68-4.37,15,15,0,0,1,4.81-2.59,18.79,18.79,0,0,1,5.76-.86A17.58,17.58,0,0,1,169,233a11.58,11.58,0,0,1,4.06,2.08,9.87,9.87,0,0,1,2.79,3.67A12.89,12.89,0,0,1,176.87,244.14Z"/><path class="cls-2" d="M223.56,65.13l.72-3.39h-2.61a7.31,7.31,0,0,0-1,3.39Z"/><path class="cls-2" d="M158.15,65.85h2l-.14.58c-.51,2.44-1.29,3.73-2.71,3.73-1.67,0-1.6-1.56-.55-6.45s1.6-6.52,3.3-6.52,1.29,1.83,1,3h4c.44-2,1-5.78-4.41-5.78-5.95,0-7.17,3.81-8.39,9.65-1.19,5.57-1.16,8.9,3.33,8.9a4.68,4.68,0,0,0,4.28-2h0l-.27,1.7h2.88l2-9.58h-5.87Z"/><polygon class="cls-2" points="210.32 54.78 206.11 67.48 206.07 67.48 206.75 54.78 202.88 54.78 198.33 67.48 198.26 67.48 199.42 54.78 195.2 54.78 194.56 72.64 199.21 72.64 203.63 59.94 203.69 59.94 202.81 72.64 207.47 72.64 214.36 54.78 210.32 54.78"/><path class="cls-2" d="M225.43,58.17l.72-3.39H215.82L212,72.64h10.59l.75-3.4h-6.42l.88-4.11h2.8a7.31,7.31,0,0,1,1-3.39h-3.13l.74-3.57Z"/><path class="cls-2" d="M130.84,64.83h0l-.1-.14a8.42,8.42,0,0,1-1.15-1.56,6.16,6.16,0,0,1-.41-2.17V54.44h-6.39v6.14a13.39,13.39,0,0,0,.38,4.08.78.78,0,0,1,0,.14h0a9.11,9.11,0,0,0,2.28,3.56L130,73l4.45-4.42-3.13-3.12Z"/><path class="cls-2" d="M148.2,60.62V54.47h-6.39V61a6.53,6.53,0,0,1-.4,2.18,6.81,6.81,0,0,1-1.16,1.56l-.1.1-.54.58-3.16,3.12L140.9,73l4.55-4.59a8.78,8.78,0,0,0,2.24-3.46l0-.1s0-.07,0-.14A10.82,10.82,0,0,0,148.2,60.62Z"/><polygon class="cls-2" points="136.11 46.15 135.84 46.15 135.84 45.88 135.63 45.88 135.63 46.32 136.11 46.32 136.11 46.15"/><polygon class="cls-2" points="135.36 45.88 135.16 45.88 135.16 46.15 134.88 46.15 134.88 46.32 135.36 46.32 135.36 45.88"/><path class="cls-2" d="M139.4,49.34c-.07-1.12-1.59-2-3.56-2.14v-.41h.27v-.17h-.48v6.59h-.27V46.62h-.48v.21h.28v.37c-2,.1-3.57,1-3.6,2.14v4.08h7.84ZM134,48.25c.17,0,.34.21.34.48s-.14.48-.34.48-.34-.21-.34-.48S133.83,48.25,134,48.25Zm-2.24,5V50l1.05,3.3h-1.05Zm0-3.7h2.11l-1,3.43Zm1.26,3.7,1-3.39,1.12,3.39Zm2.11-.47-1.06-3.23h1.06Zm1.8-4.49c.17,0,.34.21.34.48s-.14.48-.34.48-.34-.21-.34-.48S136.75,48.25,137,48.25Zm-1.12,1.26h1l-1,3.13Zm0,3.7L137,49.82l1,3.39Zm1.22-3.7h2.1L138,52.94Zm2.14,3.7h-1.06l1.06-3.29Z"/><path class="cls-2" d="M175.51,63.81v0c2-.48,3.36-1.77,3.94-4.35s-.24-4.65-3.81-4.65h-7.06l-3.81,17.86H169l1.57-7.37h1.59c1.33,0,1.63.65,1,3.74-.44,2-.51,3-.3,3.63h4.52l0-.24c-.54-.23-.61-.61.07-4.14C177.88,65.88,178.12,64.18,175.51,63.81ZM175.13,60a2.69,2.69,0,0,1-2.65,2.35h-1.29l1-4.59h1.29C175.1,57.73,175.4,58.61,175.13,60Z"/><path class="cls-2" d="M186.24,54.78l-8.36,17.86h4.35l1.36-3.4h4.28l-.07,3.4h4.35l-.65-17.86Zm1.7,11.2h-3.06L188,58h0Z"/><path class="cls-2" d="M140.25,62.42a4,4,0,0,0,.17-1.43V54.5H130.6V61a6.21,6.21,0,0,0,.11,1.39,2.43,2.43,0,0,0,.81,1.29l4,4,4-4A4.25,4.25,0,0,0,140.25,62.42Zm-1.32-2.72a1.21,1.21,0,0,1-.62.88,1.24,1.24,0,0,1-1.05,0h-.07c0,.41-.17,1,.28,1.29.17.14.37.07.84.07v1.63c0,.14-.23.27-.37.41.17.2.41.31.27.58a.21.21,0,0,1-.17.13c-.3,0-.3-.1-.64-.4-.24.23-.31.44-.61.4a.23.23,0,0,1-.17-.2.63.63,0,0,1,.13-.31c-.17,0-.17.07-.37-.1a.21.21,0,0,1,0-.3c.07-.14.2-.14.41-.14-.11-.1-.21-.2-.14-.37a.32.32,0,0,1,.2-.17c.17,0,.38.17.38.17l.24.2v-.64c-.45,0-1.36.06-1.63-.51a6.39,6.39,0,0,1-.11-.85l-.2.1c-.31.2-.34.27-.34.64v.85a11.51,11.51,0,0,0-.92,1c.14.2.44.44.27.64a.3.3,0,0,1-.2.07c-.27,0-.37-.24-.58-.44-.2.17-.37.48-.64.41-.07,0-.14-.07-.17-.17a.64.64,0,0,1,.13-.34c-.3,0-.4-.1-.44-.27s0-.21.21-.28.1,0,.23,0c-.06-.1-.17-.2-.13-.34s.07-.16.17-.16c.27-.07.27.13.51.33l.41-.37c0-.54,0-1,0-1.56.1-.41.51-.61.81-1-.34-.38-.4-.44-.81-.85l-.95.88c.2.24.27.24.3.38s0,.27-.2.3-.37-.2-.61-.41c-.27.31-.44.55-.75.34-.07-.06-.07-.2-.07-.3a1.1,1.1,0,0,1,.14-.17.42.42,0,0,1-.24-.07.25.25,0,0,1-.13-.27.32.32,0,0,1,.2-.17h.17a.72.72,0,0,1-.14-.41.37.37,0,0,1,.21-.17c.17-.07.3.14.51.31l1.19-1.19a9.43,9.43,0,0,0-.82-.85.4.4,0,0,1-.37.17c-.31-.14-.21-.41-.21-.75-.34,0-.71.07-.78-.2a.27.27,0,0,1,.21-.31,1.88,1.88,0,0,0,.23,0c-.06-.1-.17-.24-.13-.38s.13-.1.2-.13.31.13.31.13,0-.3.13-.34.34,0,.38.14v.58L134,58c.61-.58,1.33-1.29,1.94-1.94h-.51a.63.63,0,0,1-.58.27.75.75,0,0,1-.24,0c.14-.17.31-.34.44-.51-.27-.07-1.18.2-1.42-.47H135a.58.58,0,0,1,.41-.11c-.17-.23-.34-.37-.24-.47s.24.13.51.41c0,0,0,.06.07.06H136c-.17-.23-.38-.37-.28-.47s.28.17.51.44c0,0,0,0,.07.07.27,0,.71,0,.82.3h-.41a1.43,1.43,0,0,1,.47,1.53c-.27.61-.85.88-1.25,1.43a.93.93,0,0,0-.07.75l.17.23.85.85a.67.67,0,0,0,.44,0,.76.76,0,0,0,.37-.38l0-.3V57.09a1.24,1.24,0,0,1,.85-1c.1,0,.4-.11.3.17ZM133.66,56h.68l-.41.34Z"/><path class="cls-2" d="M135.39,55.32s-.06,0-.1.07.14.07.17,0S135.43,55.32,135.39,55.32Z"/></svg>